<mxfile host="65bd71144e">
    <diagram id="WnZQXVcFYX7Wy-MKrias" name="Kalman Filter">
        <mxGraphModel dx="3400" dy="2062" grid="0" gridSize="10" guides="1" tooltips="1" connect="1" arrows="1" fold="1" page="1" pageScale="1" pageWidth="850" pageHeight="1100" math="0" shadow="0">
            <root>
                <mxCell id="0"/>
                <mxCell id="1" parent="0"/>
                <mxCell id="489" value="" style="rounded=1;whiteSpace=wrap;html=1;fillColor=none;" parent="1" vertex="1">
                    <mxGeometry x="-1500" y="166.37" width="847.85" height="310" as="geometry"/>
                </mxCell>
                <mxCell id="173" value="" style="rounded=0;whiteSpace=wrap;html=1;fontSize=24;fillColor=none;" parent="1" vertex="1">
                    <mxGeometry x="-1600" y="633" width="2031" height="997" as="geometry"/>
                </mxCell>
                <mxCell id="125" value="" style="shape=image;verticalLabelPosition=bottom;labelBackgroundColor=default;verticalAlign=top;aspect=fixed;imageAspect=0;image=data:image/png,iVBORw0KGgoAAAANSUhEUgAAAFoAAAAqCAYAAAAzikzDAAAAAXNSR0IArs4c6QAAAARnQU1BAACxjwv8YQUAAAAJcEhZcwAADsMAAA7DAcdvqGQAAAPjSURBVGhD7Zu9SuxAGIa/PXegthaiNqJg4U+ljY3iDSi2NuoNCHoFegXa2qiVIChiq6WFIoKFiohY+Yc3sCfPMN9hNptks7txNhzmgZDJTMi+8843M1922Uo1QgK/zh97DvwywWhPBKM9EYz2RDDaE8FoTwSjPRGM9kQw2hPBaE8Eoz0RjPZEMNoTwWhPBKM9EYz2xH9p9Pb2tlQqldRjYmLC3OMVfmHJ4uLiojo7O8uvMNWBgYHq/v6+bSk34+PjRjPH6uqqqXt/f68uLCzU1fsg1WgMxVgE7+zsGJEnJydGaFdXV3Vra8vUlRUNDg43OAgcrefw1YdEozFzY2Ojen19bWtqQRzmMwiPj4+2tlwQDGqm24+40b70Zy4dCCSqEcTZFcxAUE/klA3MUyMx3IVZmdb2m6QajVg3KjiIdGBt0zqWkLLBUqH64oHgLik+tacazdKAofHoQBzntGWlDOhsc81Eb6c2QshcOhQ3CjjKbDK4GYd7UI/BrNO+yWU0UaFiy7hUxHHNLQu5XlhGRkZsKRteArq7u81LwdzcnHx8fNiWek5PT2VwcNDcy/nm5sa2tMfl5aUtiUQRbEuNQeva2tq/l5rNzU3bkkzT+q3hmbibn26IcdjNde0m/WOapmUkutFqfsvzuS4ip3VnXzPrMOs6mtFAH3Q/SqIV/Q2N5sN4iIqnnAQD4HZMd35ExWGjJV1UdMN1Xyxaxd3w+Jy8uMYBfXE1urSiP3Pp2N3dlfX1dTk+PpYoOk3d19eXmZ60MdWUw8ND6evrs1ciQ0ND5vz29mbOLkdHR2a6Kf39/RJ1VF5eXmxNMnwuU3VxcdHW1HN+fm5LIsPDw7aUDc+lX729vbZGZHR0VCID7VUtrehPNJovXejQysqKRKMkU1NTMjMzY1tFpqenTdvS0pKtqQehzTA5OWlLjfn+/ralWtgjMEy5u7uzpebJO0hKI/2JRl9dXZkRwmSNnuXl5X9RHU0bidZkMwA++fn5MWd30BWiktnnQjC4m2MnSTQ6WlLk8/OzZor29PTI2dmZaXt4eJD5+XnbkszT05Mt5YNnNmJvb89kEgx6HAYdbfGj1WB4fX21pXw00p8rvcsDBjw/P9srkfv7e3PWtdplbGysRhipFethVhqpkclgM+hFohpdc29vb1PTw1b0M+qFwE7M4zS9I7VzsxCuSaGAe7hXswLq03Z4X5CtoAHtZBHxLKRd/YUZDXwgAhGByW5eGTeeTiCOe2lDfCdBq6aG9CGeQ7erv1Cjs0BUJ75jKIp29Xv5s9DBwYE5Z+W/ZaYI/eFfWZ4oLOsIZBOM9kQw2gsifwHZQEPglG1lsgAAAABJRU5ErkJggg==;" parent="1" vertex="1">
                    <mxGeometry x="773" y="741" width="51.43" height="24" as="geometry"/>
                </mxCell>
                <mxCell id="172" value="" style="group" parent="1" vertex="1" connectable="0">
                    <mxGeometry x="-896" y="745" width="465" height="126.82999999999998" as="geometry"/>
                </mxCell>
                <mxCell id="144" value="" style="rounded=0;whiteSpace=wrap;html=1;fontSize=24;" parent="172" vertex="1">
                    <mxGeometry width="465" height="126.83" as="geometry"/>
                </mxCell>
                <mxCell id="167" value="&lt;div style=&quot;background-color: rgb(255, 255, 255); font-family: &amp;quot;IntelOne Mono&amp;quot;, Consolas, &amp;quot;Courier New&amp;quot;, monospace; font-size: 14px; line-height: 19px;&quot;&gt;kalman_filter&lt;/div&gt;" style="shape=process;whiteSpace=wrap;html=1;backgroundOutline=1;fontSize=24;" parent="172" vertex="1">
                    <mxGeometry x="309" y="61.829999999999984" width="136.5" height="54" as="geometry"/>
                </mxCell>
                <mxCell id="168" value="&lt;div style=&quot;background-color: rgb(255, 255, 255); font-family: &amp;quot;IntelOne Mono&amp;quot;, Consolas, &amp;quot;Courier New&amp;quot;, monospace; font-size: 14px; line-height: 19px;&quot;&gt;&lt;div style=&quot;line-height: 19px;&quot;&gt;update&lt;/div&gt;&lt;/div&gt;" style="shape=process;whiteSpace=wrap;html=1;backgroundOutline=1;fontSize=24;" parent="172" vertex="1">
                    <mxGeometry x="171" y="60.60999999999996" width="106" height="47.25" as="geometry"/>
                </mxCell>
                <mxCell id="169" value="&lt;div style=&quot;background-color: rgb(255, 255, 255); font-family: &amp;quot;IntelOne Mono&amp;quot;, Consolas, &amp;quot;Courier New&amp;quot;, monospace; font-size: 14px; line-height: 19px;&quot;&gt;&lt;div style=&quot;line-height: 19px;&quot;&gt;predict&lt;/div&gt;&lt;/div&gt;" style="shape=process;whiteSpace=wrap;html=1;backgroundOutline=1;fontSize=24;" parent="172" vertex="1">
                    <mxGeometry x="13" y="60.60999999999996" width="106" height="47.25" as="geometry"/>
                </mxCell>
                <mxCell id="170" value="Thiết kế" style="text;html=1;strokeColor=none;fillColor=none;align=center;verticalAlign=middle;whiteSpace=wrap;rounded=0;fontSize=24;" parent="172" vertex="1">
                    <mxGeometry x="162.5" y="13.329999999999984" width="127" height="30" as="geometry"/>
                </mxCell>
                <mxCell id="176" value="" style="edgeStyle=none;html=1;fontSize=24;fontColor=#000000;" parent="1" source="174" target="175" edge="1">
                    <mxGeometry relative="1" as="geometry"/>
                </mxCell>
                <mxCell id="174" value="&lt;div style=&quot;background-color: rgb(255, 255, 255); font-family: &amp;quot;IntelOne Mono&amp;quot;, Consolas, &amp;quot;Courier New&amp;quot;, monospace; font-size: 14px; line-height: 19px;&quot;&gt;&lt;div style=&quot;line-height: 19px;&quot;&gt;predict(x, u, P, Q&lt;font color=&quot;#808080&quot;&gt;)&lt;/font&gt;&lt;/div&gt;&lt;/div&gt;" style="shape=process;whiteSpace=wrap;html=1;backgroundOutline=1;fontSize=24;" parent="1" vertex="1">
                    <mxGeometry x="-1547.25" y="915" width="263" height="59" as="geometry"/>
                </mxCell>
                <mxCell id="178" value="" style="edgeStyle=none;html=1;fontSize=24;fontColor=#000000;" parent="1" source="175" target="177" edge="1">
                    <mxGeometry relative="1" as="geometry"/>
                </mxCell>
                <mxCell id="175" value="&lt;div style=&quot;background-color: rgb(255, 255, 255); font-family: &amp;quot;IntelOne Mono&amp;quot;, Consolas, &amp;quot;Courier New&amp;quot;, monospace; font-size: 14px; line-height: 19px;&quot;&gt;&lt;div style=&quot;line-height: 19px;&quot;&gt;&lt;div&gt;&amp;nbsp; &amp;nbsp; &amp;nbsp;&lt;span style=&quot;color: #008000;&quot;&gt;# State Extrapolation Equation&lt;/span&gt;&lt;/div&gt;&lt;div&gt;&amp;nbsp; &amp;nbsp; &amp;nbsp;x_pred = &lt;span style=&quot;color: #808080;&quot;&gt;self&lt;/span&gt;.F @ &lt;span style=&quot;color: #808080;&quot;&gt;x&lt;/span&gt; + &lt;span style=&quot;color: #808080;&quot;&gt;self&lt;/span&gt;.G @ &lt;span style=&quot;color: #808080;&quot;&gt;u&lt;/span&gt;.T &amp;nbsp;&lt;/div&gt;&lt;div&gt;&amp;nbsp; &amp;nbsp; &amp;nbsp;&lt;span style=&quot;color: #008000;&quot;&gt;# Covariance Extrapolation Equation &lt;/span&gt;&lt;/div&gt;&lt;div&gt;&amp;nbsp; &amp;nbsp; &amp;nbsp;P_pred = &lt;span style=&quot;color: #808080;&quot;&gt;self&lt;/span&gt;.F @ &lt;span style=&quot;color: #808080;&quot;&gt;P&lt;/span&gt; @ &lt;span style=&quot;color: #808080;&quot;&gt;self&lt;/span&gt;.F.T + &lt;span style=&quot;color: #808080;&quot;&gt;Q&lt;/span&gt; &amp;nbsp;&lt;/div&gt;&lt;/div&gt;&lt;/div&gt;" style="rounded=0;whiteSpace=wrap;html=1;fontSize=24;fillColor=none;align=left;" parent="1" vertex="1">
                    <mxGeometry x="-1582" y="1024" width="332.5" height="126" as="geometry"/>
                </mxCell>
                <mxCell id="181" value="" style="edgeStyle=none;html=1;fontSize=14;fontColor=#000000;" parent="1" source="177" target="180" edge="1">
                    <mxGeometry relative="1" as="geometry"/>
                </mxCell>
                <mxCell id="177" value="&lt;div style=&quot;font-family: &amp;quot;IntelOne Mono&amp;quot;, Consolas, &amp;quot;Courier New&amp;quot;, monospace; font-size: 14px; line-height: 19px;&quot;&gt;&lt;div&gt;&amp;nbsp;&lt;span style=&quot;color: #0000ff;&quot;&gt;return&lt;/span&gt; x, P&lt;/div&gt;&lt;/div&gt;" style="whiteSpace=wrap;html=1;fontSize=24;fillColor=none;rounded=0;" parent="1" vertex="1">
                    <mxGeometry x="-1467.88" y="1206" width="104.25" height="47" as="geometry"/>
                </mxCell>
                <mxCell id="180" value="Kết thúc hàm" style="ellipse;whiteSpace=wrap;html=1;fontSize=14;fontColor=#000000;fillColor=none;" parent="1" vertex="1">
                    <mxGeometry x="-1450.25" y="1292" width="69" height="52" as="geometry"/>
                </mxCell>
                <mxCell id="185" value="" style="edgeStyle=none;html=1;fontSize=15;fontColor=#000000;" parent="1" source="182" target="183" edge="1">
                    <mxGeometry relative="1" as="geometry"/>
                </mxCell>
                <mxCell id="182" value="&lt;div style=&quot;background-color: rgb(255, 255, 255); font-family: &amp;quot;IntelOne Mono&amp;quot;, Consolas, &amp;quot;Courier New&amp;quot;, monospace; font-size: 14px; line-height: 19px;&quot;&gt;&lt;div style=&quot;line-height: 19px;&quot;&gt;update(x_pred, P_pred, z, R)&lt;/div&gt;&lt;/div&gt;" style="shape=process;whiteSpace=wrap;html=1;backgroundOutline=1;fontSize=24;" parent="1" vertex="1">
                    <mxGeometry x="-964" y="909" width="280" height="65" as="geometry"/>
                </mxCell>
                <mxCell id="187" value="" style="edgeStyle=none;html=1;fontSize=15;fontColor=#000000;" parent="1" source="183" target="186" edge="1">
                    <mxGeometry relative="1" as="geometry"/>
                </mxCell>
                <mxCell id="183" value="&lt;div style=&quot;background-color: rgb(255, 255, 255); font-family: &amp;quot;IntelOne Mono&amp;quot;, Consolas, &amp;quot;Courier New&amp;quot;, monospace; font-size: 14px; line-height: 19px;&quot;&gt;&lt;div style=&quot;line-height: 19px;&quot;&gt;&lt;div&gt;&amp;nbsp; &amp;nbsp; &amp;nbsp; &amp;nbsp; &lt;span style=&quot;color: #008000;&quot;&gt;# Measurement residal&lt;/span&gt;&lt;/div&gt;&lt;div&gt;&amp;nbsp; &amp;nbsp; &amp;nbsp; &amp;nbsp; y = &lt;span style=&quot;color: #808080;&quot;&gt;z&lt;/span&gt;.T - &lt;span style=&quot;color: #808080;&quot;&gt;self&lt;/span&gt;.H @ &lt;span style=&quot;color: #808080;&quot;&gt;x_pred&lt;/span&gt; &amp;nbsp; &amp;nbsp; &amp;nbsp; &amp;nbsp; &amp;nbsp; &amp;nbsp; &amp;nbsp; &amp;nbsp; &amp;nbsp; &amp;nbsp; &amp;nbsp; &amp;nbsp; &amp;nbsp; &amp;nbsp; &amp;nbsp; &amp;nbsp; &amp;nbsp; &amp;nbsp; &amp;nbsp; &amp;nbsp; &amp;nbsp; &amp;nbsp; &amp;nbsp; &lt;/div&gt;&lt;div&gt;&amp;nbsp; &amp;nbsp; &amp;nbsp; &amp;nbsp; &lt;span style=&quot;color: #008000;&quot;&gt;# Kalman Gain&lt;/span&gt;&lt;/div&gt;&lt;div&gt;&amp;nbsp; &amp;nbsp; &amp;nbsp; &amp;nbsp; K = &lt;span style=&quot;color: #808080;&quot;&gt;P_pred&lt;/span&gt; @ &lt;span style=&quot;color: #808080;&quot;&gt;self&lt;/span&gt;.H.T @ np.linalg.inv(&lt;span style=&quot;color: #808080;&quot;&gt;self&lt;/span&gt;.H @ &lt;span style=&quot;color: #808080;&quot;&gt;P_pred&lt;/span&gt; @ &lt;span style=&quot;color: #808080;&quot;&gt;self&lt;/span&gt;.H.T + &lt;span style=&quot;color: #808080;&quot;&gt;R&lt;/span&gt;) &amp;nbsp; &lt;/div&gt;&lt;div&gt;&amp;nbsp; &amp;nbsp; &amp;nbsp; &amp;nbsp; &lt;span style=&quot;color: #008000;&quot;&gt;# State Update Equation (Estimate)&lt;/span&gt;&lt;/div&gt;&lt;div&gt;&amp;nbsp; &amp;nbsp; &amp;nbsp; &amp;nbsp; x = &lt;span style=&quot;color: #808080;&quot;&gt;x_pred&lt;/span&gt; + K @ y &amp;nbsp; &amp;nbsp; &amp;nbsp; &amp;nbsp; &amp;nbsp; &amp;nbsp; &amp;nbsp; &amp;nbsp;&lt;/div&gt;&lt;div&gt;&amp;nbsp; &amp;nbsp; &amp;nbsp; &amp;nbsp; &lt;span style=&quot;color: #008000;&quot;&gt;# Covariance Update Equation &amp;nbsp; &amp;nbsp; &amp;nbsp; &amp;nbsp; &amp;nbsp; &amp;nbsp; &amp;nbsp; &amp;nbsp; &amp;nbsp; &amp;nbsp; &amp;nbsp; &amp;nbsp; &amp;nbsp; &amp;nbsp; &amp;nbsp; &amp;nbsp; &amp;nbsp; &amp;nbsp; &amp;nbsp; &lt;/span&gt;&lt;/div&gt;&lt;div&gt;&amp;nbsp; &amp;nbsp; &amp;nbsp; &amp;nbsp; P = (&lt;span style=&quot;color: #808080;&quot;&gt;self&lt;/span&gt;.I - K @ &lt;span style=&quot;color: #808080;&quot;&gt;self&lt;/span&gt;.H) @ &lt;span style=&quot;color: #808080;&quot;&gt;P_pred&lt;/span&gt; &amp;nbsp; &amp;nbsp; &lt;/div&gt;&lt;/div&gt;&lt;/div&gt;" style="rounded=0;whiteSpace=wrap;html=1;fontSize=24;fillColor=none;align=left;" parent="1" vertex="1">
                    <mxGeometry x="-1140" y="1024" width="632" height="169" as="geometry"/>
                </mxCell>
                <mxCell id="189" value="" style="edgeStyle=none;html=1;fontSize=15;fontColor=#000000;" parent="1" source="186" target="188" edge="1">
                    <mxGeometry relative="1" as="geometry"/>
                </mxCell>
                <mxCell id="186" value="&lt;span style=&quot;font-family: &amp;quot;IntelOne Mono&amp;quot;, Consolas, &amp;quot;Courier New&amp;quot;, monospace; font-size: 14px;&quot;&gt;&amp;nbsp;&lt;/span&gt;&lt;span style=&quot;border-color: var(--border-color); font-family: &amp;quot;IntelOne Mono&amp;quot;, Consolas, &amp;quot;Courier New&amp;quot;, monospace; font-size: 14px; color: rgb(0, 0, 255);&quot;&gt;return&lt;/span&gt;&lt;span style=&quot;font-family: &amp;quot;IntelOne Mono&amp;quot;, Consolas, &amp;quot;Courier New&amp;quot;, monospace; font-size: 14px;&quot;&gt;&amp;nbsp;x, P&lt;/span&gt;" style="whiteSpace=wrap;html=1;fontSize=24;fillColor=none;rounded=0;" parent="1" vertex="1">
                    <mxGeometry x="-884.25" y="1251" width="120.5" height="52.44" as="geometry"/>
                </mxCell>
                <mxCell id="188" value="Kết thúc hàm" style="ellipse;whiteSpace=wrap;html=1;fontSize=14;fontColor=#000000;fillColor=none;" parent="1" vertex="1">
                    <mxGeometry x="-858.5" y="1338" width="69" height="52" as="geometry"/>
                </mxCell>
                <mxCell id="192" value="" style="edgeStyle=none;html=1;fontSize=15;fontColor=#000000;" parent="1" source="190" target="191" edge="1">
                    <mxGeometry relative="1" as="geometry"/>
                </mxCell>
                <mxCell id="190" value="&lt;div style=&quot;background-color: rgb(255, 255, 255); font-family: &amp;quot;IntelOne Mono&amp;quot;, Consolas, &amp;quot;Courier New&amp;quot;, monospace; font-size: 14px; line-height: 19px;&quot;&gt;&lt;div style=&quot;line-height: 19px;&quot;&gt;kalman_filter(x_wls, v_wls, cov_zs, cov_vs)&lt;/div&gt;&lt;/div&gt;" style="shape=process;whiteSpace=wrap;html=1;backgroundOutline=1;fontSize=24;" parent="1" vertex="1">
                    <mxGeometry x="-371" y="915" width="301" height="54" as="geometry"/>
                </mxCell>
                <mxCell id="194" value="" style="edgeStyle=none;html=1;fontSize=15;fontColor=#000000;" parent="1" source="191" target="193" edge="1">
                    <mxGeometry relative="1" as="geometry"/>
                </mxCell>
                <mxCell id="191" value="Khởi tạo&amp;nbsp;F, H, x, P, I,&amp;nbsp;&lt;br&gt;&lt;div style=&quot;background-color: rgb(255, 255, 255); font-family: &amp;quot;IntelOne Mono&amp;quot;, Consolas, &amp;quot;Courier New&amp;quot;, monospace; font-size: 14px; line-height: 19px;&quot;&gt;sigma_mahalanobis = 30&lt;/div&gt;" style="whiteSpace=wrap;html=1;" parent="1" vertex="1">
                    <mxGeometry x="-318.5" y="1015" width="195.5" height="60" as="geometry"/>
                </mxCell>
                <mxCell id="197" value="" style="edgeStyle=none;html=1;fontSize=15;fontColor=#000000;" parent="1" source="193" target="196" edge="1">
                    <mxGeometry relative="1" as="geometry"/>
                </mxCell>
                <mxCell id="193" value="&lt;div style=&quot;background-color: rgb(255, 255, 255); font-family: &amp;quot;IntelOne Mono&amp;quot;, Consolas, &amp;quot;Courier New&amp;quot;, monospace; font-size: 14px; line-height: 19px;&quot;&gt;vs = np.vstack([np.zeros([&lt;span style=&quot;color: #098658;&quot;&gt;1&lt;/span&gt;, &lt;span style=&quot;color: #098658;&quot;&gt;3&lt;/span&gt;]), (&lt;span style=&quot;color: #808080;&quot;&gt;v_wls&lt;/span&gt;[:-&lt;span style=&quot;color: #098658;&quot;&gt;1&lt;/span&gt;] + &lt;span style=&quot;color: #808080;&quot;&gt;v_wls&lt;/span&gt;[&lt;span style=&quot;color: #098658;&quot;&gt;1&lt;/span&gt;:])/&lt;span style=&quot;color: #098658;&quot;&gt;2&lt;/span&gt;])&lt;/div&gt;" style="whiteSpace=wrap;html=1;" parent="1" vertex="1">
                    <mxGeometry x="-352.25" y="1121" width="263.5" height="60" as="geometry"/>
                </mxCell>
                <mxCell id="203" value="" style="edgeStyle=none;html=1;fontSize=15;fontColor=#000000;exitX=0.5;exitY=1;exitDx=0;exitDy=0;" parent="1" source="195" target="202" edge="1">
                    <mxGeometry relative="1" as="geometry"/>
                </mxCell>
                <mxCell id="217" value="Sai" style="edgeLabel;html=1;align=center;verticalAlign=middle;resizable=0;points=[];fontSize=15;fontColor=#000000;" parent="203" vertex="1" connectable="0">
                    <mxGeometry x="-0.285" y="-2" relative="1" as="geometry">
                        <mxPoint x="5" as="offset"/>
                    </mxGeometry>
                </mxCell>
                <mxCell id="212" style="edgeStyle=none;html=1;entryX=0;entryY=0.5;entryDx=0;entryDy=0;fontSize=15;fontColor=#000000;" parent="1" source="195" target="196" edge="1">
                    <mxGeometry relative="1" as="geometry">
                        <Array as="points">
                            <mxPoint x="-435" y="1356"/>
                            <mxPoint x="-435" y="1250"/>
                        </Array>
                    </mxGeometry>
                </mxCell>
                <mxCell id="213" value="Đúng" style="edgeLabel;html=1;align=center;verticalAlign=middle;resizable=0;points=[];fontSize=15;fontColor=#000000;" parent="212" vertex="1" connectable="0">
                    <mxGeometry x="-0.3528" relative="1" as="geometry">
                        <mxPoint as="offset"/>
                    </mxGeometry>
                </mxCell>
                <mxCell id="195" value="i == 0 ?" style="rhombus;whiteSpace=wrap;html=1;fontSize=15;fontColor=#000000;fillColor=none;" parent="1" vertex="1">
                    <mxGeometry x="-290.24" y="1319" width="139.5" height="67.72" as="geometry"/>
                </mxCell>
                <mxCell id="198" style="edgeStyle=none;html=1;entryX=0.5;entryY=0;entryDx=0;entryDy=0;fontSize=15;fontColor=#000000;" parent="1" source="196" target="195" edge="1">
                    <mxGeometry relative="1" as="geometry"/>
                </mxCell>
                <mxCell id="196" value="&lt;div style=&quot;background-color: rgb(255, 255, 255); font-family: &amp;quot;IntelOne Mono&amp;quot;, Consolas, &amp;quot;Courier New&amp;quot;, monospace; font-size: 14px; line-height: 19px;&quot;&gt;&lt;div style=&quot;line-height: 19px;&quot;&gt;&lt;div style=&quot;text-align: left;&quot;&gt;&amp;nbsp;&lt;span style=&quot;color: #0000ff;&quot;&gt;for&lt;/span&gt; i, (u, z) &lt;span style=&quot;color: #0000ff;&quot;&gt;in&lt;/span&gt;&lt;span style=&quot;color: #2b91af;&quot;&gt;enumerate&lt;/span&gt;(&lt;span style=&quot;color: #2b91af;&quot;&gt;zip&lt;/span&gt;(vs, &lt;span style=&quot;color: #808080;&quot;&gt;x_wls&lt;/span&gt;)):&lt;/div&gt;&lt;div&gt;&lt;/div&gt;&lt;/div&gt;&lt;/div&gt;" style="whiteSpace=wrap;html=1;" parent="1" vertex="1">
                    <mxGeometry x="-392.12" y="1220" width="343.25" height="60" as="geometry"/>
                </mxCell>
                <mxCell id="208" value="" style="edgeStyle=none;html=1;fontSize=15;fontColor=#000000;" parent="1" source="202" target="207" edge="1">
                    <mxGeometry relative="1" as="geometry"/>
                </mxCell>
                <mxCell id="202" value="&lt;div style=&quot;background-color: rgb(255, 255, 255); font-family: &amp;quot;IntelOne Mono&amp;quot;, Consolas, &amp;quot;Courier New&amp;quot;, monospace; font-size: 14px; line-height: 19px;&quot;&gt;&lt;div&gt;Q = &lt;span style=&quot;color: #808080;&quot;&gt;cov_vs&lt;/span&gt;[i]&lt;/div&gt;&lt;div&gt;R = &lt;span style=&quot;color: rgb(128, 128, 128);&quot;&gt;cov_zs&lt;/span&gt;[i]&lt;/div&gt;&lt;/div&gt;" style="rounded=0;whiteSpace=wrap;html=1;fontSize=15;fontColor=#000000;fillColor=none;" parent="1" vertex="1">
                    <mxGeometry x="-280.5" y="1438" width="119.5" height="60" as="geometry"/>
                </mxCell>
                <mxCell id="210" value="" style="edgeStyle=none;html=1;fontSize=15;fontColor=#000000;" parent="1" source="207" target="209" edge="1">
                    <mxGeometry relative="1" as="geometry"/>
                </mxCell>
                <mxCell id="207" value="&lt;div style=&quot;background-color: rgb(255, 255, 255); font-family: &amp;quot;IntelOne Mono&amp;quot;, Consolas, &amp;quot;Courier New&amp;quot;, monospace; font-size: 14px; line-height: 19px;&quot;&gt;&lt;div style=&quot;line-height: 19px;&quot;&gt;&lt;div&gt;&lt;span style=&quot;color: #008000;&quot;&gt;# Prediction step&lt;/span&gt;&lt;/div&gt;&lt;div&gt;x, P = predict(x, u, P, Q)&lt;/div&gt;&lt;/div&gt;&lt;/div&gt;" style="rounded=0;whiteSpace=wrap;html=1;fontSize=15;fontColor=#000000;fillColor=none;align=left;" parent="1" vertex="1">
                    <mxGeometry x="-325.49" y="1546" width="210" height="60" as="geometry"/>
                </mxCell>
                <mxCell id="214" value="" style="edgeStyle=none;html=1;fontSize=15;fontColor=#000000;" parent="1" source="209" target="211" edge="1">
                    <mxGeometry relative="1" as="geometry"/>
                </mxCell>
                <mxCell id="209" value="&lt;div style=&quot;background-color: rgb(255, 255, 255); font-family: &amp;quot;IntelOne Mono&amp;quot;, Consolas, &amp;quot;Courier New&amp;quot;, monospace; font-size: 14px; line-height: 19px;&quot;&gt;&lt;div style=&quot;line-height: 19px;&quot;&gt;&lt;div style=&quot;line-height: 19px;&quot;&gt;&lt;div&gt;&lt;span style=&quot;color: #008000;&quot;&gt;# Check outliers for observation&lt;/span&gt;&lt;/div&gt;&lt;div&gt;d = distance.mahalanobis(z, &lt;span style=&quot;color: #808080;&quot;&gt;self&lt;/span&gt;.H @ x, np.linalg.inv(P))&lt;/div&gt;&lt;/div&gt;&lt;/div&gt;&lt;/div&gt;" style="rounded=0;whiteSpace=wrap;html=1;fontSize=15;fontColor=#000000;fillColor=none;align=left;" parent="1" vertex="1">
                    <mxGeometry x="-61" y="1547" width="450" height="59" as="geometry"/>
                </mxCell>
                <mxCell id="216" value="" style="edgeStyle=none;html=1;fontSize=15;fontColor=#000000;" parent="1" source="211" target="215" edge="1">
                    <mxGeometry relative="1" as="geometry"/>
                </mxCell>
                <mxCell id="222" value="Đúng" style="edgeLabel;html=1;align=center;verticalAlign=middle;resizable=0;points=[];fontSize=15;fontColor=#000000;" parent="216" vertex="1" connectable="0">
                    <mxGeometry x="-0.5246" relative="1" as="geometry">
                        <mxPoint x="18" y="-4" as="offset"/>
                    </mxGeometry>
                </mxCell>
                <mxCell id="223" style="edgeStyle=none;html=1;entryX=0.5;entryY=1;entryDx=0;entryDy=0;fontSize=15;fontColor=#000000;" parent="1" source="211" target="533" edge="1">
                    <mxGeometry relative="1" as="geometry">
                        <Array as="points">
                            <mxPoint x="-14" y="1472"/>
                        </Array>
                    </mxGeometry>
                </mxCell>
                <mxCell id="224" value="Sai" style="edgeLabel;html=1;align=center;verticalAlign=middle;resizable=0;points=[];fontSize=15;fontColor=#000000;" parent="223" vertex="1" connectable="0">
                    <mxGeometry x="0.1005" y="-2" relative="1" as="geometry">
                        <mxPoint x="-2" y="-27" as="offset"/>
                    </mxGeometry>
                </mxCell>
                <mxCell id="211" value="d &amp;lt;&amp;nbsp;&lt;span style=&quot;background-color: rgb(255, 255, 255); font-family: &amp;quot;IntelOne Mono&amp;quot;, Consolas, &amp;quot;Courier New&amp;quot;, monospace; font-size: 14px;&quot;&gt;sigma_mahalanobis&lt;/span&gt;" style="rhombus;whiteSpace=wrap;html=1;fontSize=15;fontColor=#000000;fillColor=none;" parent="1" vertex="1">
                    <mxGeometry x="63.12" y="1426" width="201.75" height="91.86" as="geometry"/>
                </mxCell>
                <mxCell id="143" value="&lt;font style=&quot;font-size: 24px;&quot;&gt;class KalmanFilter&lt;/font&gt;" style="rounded=1;whiteSpace=wrap;html=1;" parent="1" vertex="1">
                    <mxGeometry x="-732" y="606" width="307" height="60" as="geometry"/>
                </mxCell>
                <mxCell id="221" value="" style="edgeStyle=none;html=1;fontSize=15;fontColor=#000000;" parent="1" source="215" target="220" edge="1">
                    <mxGeometry relative="1" as="geometry"/>
                </mxCell>
                <mxCell id="215" value="&lt;div style=&quot;background-color: rgb(255, 255, 255); font-family: &amp;quot;IntelOne Mono&amp;quot;, Consolas, &amp;quot;Courier New&amp;quot;, monospace; font-size: 14px; line-height: 19px;&quot;&gt;&lt;div style=&quot;line-height: 19px;&quot;&gt;&lt;div&gt;&lt;span style=&quot;color: #008000;&quot;&gt;# Prediction step&lt;/span&gt;&lt;/div&gt;&lt;div&gt;&lt;div style=&quot;line-height: 19px;&quot;&gt;x, P = update(x, P, z, R)&lt;/div&gt;&lt;/div&gt;&lt;/div&gt;&lt;/div&gt;" style="rounded=0;whiteSpace=wrap;html=1;fontSize=15;fontColor=#000000;fillColor=none;align=left;" parent="1" vertex="1">
                    <mxGeometry x="64.99999999999999" y="1330" width="198" height="60" as="geometry"/>
                </mxCell>
                <mxCell id="219" value="Kết thúc hàm" style="ellipse;whiteSpace=wrap;html=1;fontSize=14;fontColor=#000000;fillColor=none;" parent="1" vertex="1">
                    <mxGeometry x="313" y="1008" width="69" height="52" as="geometry"/>
                </mxCell>
                <mxCell id="226" value="" style="edgeStyle=none;html=1;fontSize=15;fontColor=#000000;" parent="1" source="220" target="225" edge="1">
                    <mxGeometry relative="1" as="geometry"/>
                </mxCell>
                <mxCell id="220" value="&lt;div style=&quot;background-color: rgb(255, 255, 255); font-family: &amp;quot;IntelOne Mono&amp;quot;, Consolas, &amp;quot;Courier New&amp;quot;, monospace; font-size: 14px; line-height: 19px;&quot;&gt;&lt;div style=&quot;line-height: 19px;&quot;&gt;&lt;div style=&quot;line-height: 19px;&quot;&gt;&lt;div&gt;x_kf[i] = x.T &lt;/div&gt;&lt;div&gt;P_kf[i] = P&lt;/div&gt;&lt;/div&gt;&lt;/div&gt;&lt;/div&gt;" style="rounded=0;whiteSpace=wrap;html=1;fontSize=15;fontColor=#000000;fillColor=none;align=left;" parent="1" vertex="1">
                    <mxGeometry x="110" y="1238.28" width="108" height="60" as="geometry"/>
                </mxCell>
                <mxCell id="228" style="edgeStyle=none;html=1;entryX=1;entryY=0.5;entryDx=0;entryDy=0;fontSize=15;fontColor=#000000;" parent="1" source="225" target="196" edge="1">
                    <mxGeometry relative="1" as="geometry">
                        <Array as="points">
                            <mxPoint x="-4" y="1163"/>
                            <mxPoint x="-4" y="1250"/>
                        </Array>
                    </mxGeometry>
                </mxCell>
                <mxCell id="229" value="Đúng" style="edgeLabel;html=1;align=center;verticalAlign=middle;resizable=0;points=[];fontSize=15;fontColor=#000000;" parent="228" vertex="1" connectable="0">
                    <mxGeometry x="-0.4951" relative="1" as="geometry">
                        <mxPoint as="offset"/>
                    </mxGeometry>
                </mxCell>
                <mxCell id="230" value="" style="edgeStyle=none;html=1;fontSize=15;fontColor=#000000;entryX=0.5;entryY=1;entryDx=0;entryDy=0;" parent="1" source="225" target="232" edge="1">
                    <mxGeometry relative="1" as="geometry"/>
                </mxCell>
                <mxCell id="231" value="Sai" style="edgeLabel;html=1;align=center;verticalAlign=middle;resizable=0;points=[];fontSize=15;fontColor=#000000;" parent="230" vertex="1" connectable="0">
                    <mxGeometry x="-0.1826" y="3" relative="1" as="geometry">
                        <mxPoint as="offset"/>
                    </mxGeometry>
                </mxCell>
                <mxCell id="225" value="i &amp;lt; len(vs) và &lt;br&gt;i &amp;lt; len(x_wls)?  " style="rhombus;whiteSpace=wrap;html=1;fontSize=15;fontColor=#000000;fillColor=none;" parent="1" vertex="1">
                    <mxGeometry x="90.5" y="1115" width="147" height="95.72" as="geometry"/>
                </mxCell>
                <mxCell id="234" value="" style="edgeStyle=none;html=1;fontSize=15;fontColor=#000000;" parent="1" source="232" target="219" edge="1">
                    <mxGeometry relative="1" as="geometry"/>
                </mxCell>
                <mxCell id="232" value="&lt;div style=&quot;background-color: rgb(255, 255, 255); font-family: &amp;quot;IntelOne Mono&amp;quot;, Consolas, &amp;quot;Courier New&amp;quot;, monospace; font-size: 14px; line-height: 19px;&quot;&gt;&lt;div style=&quot;line-height: 19px;&quot;&gt;&lt;div style=&quot;line-height: 19px;&quot;&gt;&lt;div style=&quot;line-height: 19px;&quot;&gt;&lt;span style=&quot;color: #0000ff;&quot;&gt;return&lt;/span&gt; x_kf, P_kf&lt;/div&gt;&lt;/div&gt;&lt;/div&gt;&lt;/div&gt;" style="rounded=0;whiteSpace=wrap;html=1;fontSize=15;fontColor=#000000;fillColor=none;align=left;" parent="1" vertex="1">
                    <mxGeometry x="91.5" y="999.9999999999999" width="145" height="60" as="geometry"/>
                </mxCell>
                <mxCell id="408" value="" style="group" parent="1" vertex="1" connectable="0">
                    <mxGeometry x="-1287" y="-190" width="403" height="308" as="geometry"/>
                </mxCell>
                <mxCell id="166" value="" style="group" parent="408" vertex="1" connectable="0">
                    <mxGeometry y="92" width="403" height="216" as="geometry"/>
                </mxCell>
                <mxCell id="130" style="edgeStyle=none;html=1;" parent="166" source="134" edge="1">
                    <mxGeometry relative="1" as="geometry">
                        <mxPoint x="331" y="60" as="targetPoint"/>
                    </mxGeometry>
                </mxCell>
                <mxCell id="132" style="edgeStyle=none;html=1;exitX=1;exitY=0.5;exitDx=0;exitDy=0;" parent="166" target="134" edge="1">
                    <mxGeometry relative="1" as="geometry">
                        <mxPoint x="38" y="60" as="sourcePoint"/>
                    </mxGeometry>
                </mxCell>
                <mxCell id="134" value="&lt;span style=&quot;font-size: 18px;&quot;&gt;&lt;b&gt;Kalman Filter&lt;/b&gt;&lt;/span&gt;" style="rounded=1;whiteSpace=wrap;html=1;" parent="166" vertex="1">
                    <mxGeometry x="138" width="140" height="120" as="geometry"/>
                </mxCell>
                <mxCell id="136" value="&lt;b style=&quot;border-color: var(--border-color);&quot;&gt;&lt;font style=&quot;font-size: 14px;&quot;&gt;&lt;span style=&quot;border-color: var(--border-color); font-family: Lato;&quot;&gt;x_wls&lt;/span&gt;&lt;span style=&quot;border-color: var(--border-color); font-family: Lato;&quot;&gt;&amp;nbsp;&lt;br&gt;&lt;/span&gt;&lt;span style=&quot;border-color: var(--border-color); font-family: Lato;&quot;&gt;v_wls&lt;/span&gt;&lt;span style=&quot;border-color: var(--border-color); font-family: Lato;&quot;&gt;&lt;br&gt;&lt;/span&gt;&lt;span style=&quot;border-color: var(--border-color); font-family: Lato;&quot;&gt;cov_x&lt;/span&gt;&lt;span style=&quot;border-color: var(--border-color); font-family: Lato;&quot;&gt;&lt;br&gt;&lt;/span&gt;&lt;span style=&quot;border-color: var(--border-color); font-family: Lato;&quot;&gt;cov_v&lt;/span&gt;&lt;/font&gt;&lt;/b&gt;" style="text;html=1;align=left;verticalAlign=middle;resizable=0;points=[];autosize=1;strokeColor=none;fillColor=none;" parent="166" vertex="1">
                    <mxGeometry y="5.5" width="55" height="84" as="geometry"/>
                </mxCell>
                <mxCell id="137" value="&lt;b style=&quot;border-color: var(--border-color);&quot;&gt;&lt;font style=&quot;&quot;&gt;&lt;span style=&quot;border-color: var(--border-color); font-family: Lato;&quot;&gt;&lt;font style=&quot;font-size: 12px;&quot;&gt;x_kf&lt;/font&gt;&lt;/span&gt;&lt;br&gt;&lt;/font&gt;&lt;/b&gt;" style="text;html=1;align=left;verticalAlign=middle;resizable=0;points=[];autosize=1;strokeColor=none;fillColor=none;flipH=1;" parent="166" vertex="1">
                    <mxGeometry x="333" y="44" width="40" height="28" as="geometry"/>
                </mxCell>
                <mxCell id="139" style="edgeStyle=none;html=1;exitX=1;exitY=0.5;exitDx=0;exitDy=0;" parent="166" edge="1">
                    <mxGeometry relative="1" as="geometry">
                        <mxPoint x="38" y="79" as="sourcePoint"/>
                        <mxPoint x="138" y="79" as="targetPoint"/>
                    </mxGeometry>
                </mxCell>
                <mxCell id="141" style="edgeStyle=none;html=1;exitX=1;exitY=0.5;exitDx=0;exitDy=0;" parent="166" edge="1">
                    <mxGeometry relative="1" as="geometry">
                        <mxPoint x="38" y="21.960000000000036" as="sourcePoint"/>
                        <mxPoint x="138" y="21.960000000000036" as="targetPoint"/>
                    </mxGeometry>
                </mxCell>
                <mxCell id="142" style="edgeStyle=none;html=1;exitX=1;exitY=0.5;exitDx=0;exitDy=0;" parent="166" edge="1">
                    <mxGeometry relative="1" as="geometry">
                        <mxPoint x="38" y="39" as="sourcePoint"/>
                        <mxPoint x="138" y="39" as="targetPoint"/>
                    </mxGeometry>
                </mxCell>
                <mxCell id="540" value="" style="group" parent="166" vertex="1" connectable="0">
                    <mxGeometry x="33" y="203" width="315" height="121" as="geometry"/>
                </mxCell>
                <mxCell id="541" value="" style="rounded=1;whiteSpace=wrap;html=1;" parent="540" vertex="1">
                    <mxGeometry width="307" height="73" as="geometry"/>
                </mxCell>
                <mxCell id="542" value="Chi tiết sơ đồ khối của khối Kalman Filter" style="text;html=1;strokeColor=none;fillColor=none;align=center;verticalAlign=middle;whiteSpace=wrap;rounded=0;fontSize=24;" parent="540" vertex="1">
                    <mxGeometry x="18" y="16" width="280" height="36.32" as="geometry"/>
                </mxCell>
                <mxCell id="400" value="" style="group" parent="408" vertex="1" connectable="0">
                    <mxGeometry x="46" width="307" height="73" as="geometry"/>
                </mxCell>
                <mxCell id="401" value="" style="rounded=1;whiteSpace=wrap;html=1;" parent="400" vertex="1">
                    <mxGeometry width="307" height="73" as="geometry"/>
                </mxCell>
                <mxCell id="402" value="Tổng quan sơ đồ khối của khối Kalman Filter" style="text;html=1;strokeColor=none;fillColor=none;align=center;verticalAlign=middle;whiteSpace=wrap;rounded=0;fontSize=24;" parent="400" vertex="1">
                    <mxGeometry x="18" y="15.816666666666665" width="279" height="36.5" as="geometry"/>
                </mxCell>
                <mxCell id="410" value="predict" style="rounded=1;whiteSpace=wrap;html=1;" parent="1" vertex="1">
                    <mxGeometry x="-1385.2800000000002" y="265.87" width="120" height="61" as="geometry"/>
                </mxCell>
                <mxCell id="461" style="edgeStyle=none;html=1;exitX=1;exitY=0.25;exitDx=0;exitDy=0;" parent="1" source="411" edge="1">
                    <mxGeometry relative="1" as="geometry">
                        <mxPoint x="-680.65" y="301.67" as="targetPoint"/>
                    </mxGeometry>
                </mxCell>
                <mxCell id="411" value="update" style="rounded=1;whiteSpace=wrap;html=1;" parent="1" vertex="1">
                    <mxGeometry x="-870.65" y="286.67" width="120" height="61" as="geometry"/>
                </mxCell>
                <mxCell id="318" value="" style="endArrow=classic;html=1;entryX=0;entryY=0.5;entryDx=0;entryDy=0;" parent="1" target="324" edge="1">
                    <mxGeometry width="50" height="50" relative="1" as="geometry">
                        <mxPoint x="-401" y="182" as="sourcePoint"/>
                        <mxPoint x="-331.4999999999977" y="182.69" as="targetPoint"/>
                    </mxGeometry>
                </mxCell>
                <mxCell id="334" value="" style="edgeStyle=none;html=1;entryX=0;entryY=0.5;entryDx=0;entryDy=0;" parent="1" source="325" target="332" edge="1">
                    <mxGeometry relative="1" as="geometry"/>
                </mxCell>
                <mxCell id="336" value="" style="shape=image;verticalLabelPosition=bottom;labelBackgroundColor=default;verticalAlign=top;aspect=fixed;imageAspect=0;image=data:image/png,iVBORw0KGgoAAAANSUhEUgAAAP8AAABkCAYAAABJqeZKAAAAAXNSR0IArs4c6QAAAARnQU1BAACxjwv8YQUAAAAJcEhZcwAADsMAAA7DAcdvqGQAAA1mSURBVHhe7Z1PctM8GIfDdwHgAAywYgksYQOcgLJnBjgBcALgBKVrFoUTQGfYF04AnAD2MAM34NNjrFZRX9myIzux/XtmNE3SxLFl/d5/keVzfx0rIcTi+K/+K4RYGBK/EAtF4hdioUj8QiwUiV+IhTJItf/r16/1o1OuXLmyunDhQv1MCLFtioof0b969Wr14cOH+pV1nj17ttrf36+fCSG2SRHx//nzpxL927dvq8dN4P0xAI8fP65fEUJsg43F/+nTp9Xz58/NUL+JGzdurN6/f1+lA0KI8eld8MPDI/p79+51Fj7wmatXr1bbEEKMz399hEt4j3Bfv35dv2JDiN9W5GMbFy9erLYphBiP/7pU4DEUePonT5405vY+r//+/fvq9+/f1eOm8J5tsc2bN2+ufvz4Ub8qhBgUcv42nID/Pnv27K8TNfWBZHN5/F8n9Or9Fi7Hr95jfTZsfJcQYlhaxX98fPzXeW1TpL7dvXu3UfQxbPPx48fmtnzD0BweHtafEEKUJil+hNwmUET/5cuX+hPd4bNt30Gk4NKH+hNCiFKcET+ix+OmQnxe31T0MYi7zQgoFRCiLGviJxxP5eSIHoGWFL0F6YP1/TTSD6UCQpShEn9TQY/XXrx4MXrojRFI1Rr29vaUCgixIZX48fixwBB9lyLeUKSMgNIAITbjZHrvgwcPqgtymHb76NGjau69MwD8aydg3w4ODqrpxMwZcOnHTu2fEFPjRPxMtGGW3a6JPgbxs38YKSFEf4pe0iuEmA5ayUeIhSLxC7FQNgr7yb9p3759O7nQh3ycdvny5ap+QHGuD2yPIh/b9lcesl22d+fOndXe3l71mhCiJ4i/K02TgeLGHIGu5FxPoN/5hdiMTuL3k4EsMTa1LgaA91rbCBuGRwixGdniR/jMrLPEmNNypgXnCJ/GNGMhxGZkF/xYbiu1Km8Obct1saIPi4DmQM4vhNiMrIIfwozF6ycCNa3oE+PydLMASNGQGYa520ptRwiRT6vnp9Iee2SX958s0UVFPxcrcmDZri7C9xV/IcRmtIofjx8Kk5/Y9vf3Tzz/4eFhthg/f/5cP/oH242372Gbd+/erZ+domm9QpShUfyIMlxQE8Ej/JinT5/Wj5ohvA8hnbCiAb6DC3eOj48r4xIi8QtRhqycH9G+e/eumrjz8uXL+tVTMBIsv50DokbAVp7vjUuYSvD/0EAQDSjsF2Jzil3Ywzr+Octue3Fby3TzP+oJQojhKTa3P3e67dHRUbVGfyx8RC/hCzEexTw/oTlhfB8wHOT2vogohBieYuLvkveHkP9T2JPwhRiXYmE/4u0qYN4vjy/Edigmfuj6MxzC1093YgiIRPllisLyVG8CS22MVHqw/SfsL0WXK/54rxCl4XJwxpaLJk/GGo+nBhfSXYkua+e4Sl7KXlT83Igz3NlU444/214SXMwLf7l5KHo/1vb39+t3TQv2OzYAtD5rZFgUFT8nIN5Rq03REovdxVr8pfQt5bYJTjU+PpcubxwFFBU/xJY31eT554cPuQ9HvKUa3jEO8XltjuOLvg01xLHS530pLn4sbriDqTYXqyz+iT487yz6MgaW8PGSc4a+9sfrW18DUDzsJxyJd85qU83DxCkY8Ngb0cYQP9HF0oTviQ0Ax97HmRYVPyc93KmmVqpoIcYnVVzzbehl1hjo8XePLXzGOtGOb2M7s7i4Tn90TXWKiZ+DD3emrY0VGopyMLgw2inR+zak+NmHOLXEEI1N3AdDGzyL2Nl21VQR8WOF2gZE3Hi/mA6EmtbPTlYbUgixk2Gfunq8EuyC+DnucB9oXSKgjWf4cXUeM5HC6/Jz4P05lwCL7cK6C8ySu3fv3tbPF2MmXlLORSKLnR7OcXP8IWgxl43Ez8noI3xPvLKP2B1Yu5GppYje3zEJXMi9ct6lWsMxHnhDw8pP4VhjarjzuPWzZeJSnjXjR/9kTweuI4BeWAU+8i+rAmy1oYp+PjfllwcfnhEe5uSGfJZKMnllGNrxfBu55bYgjPXH7o/fqiiHfeTbECEw5yX+rqHGTw7xvmwj7PfEemPfcugtfqvAh9g4SXElMtWGKPq15aYM4hSIvi2vpWNLzq/eVRC6P17ONefVwuqvIYSA0MPv2PZ52CXxc27CfaHlTLTqJX5L+HSG9wx+4LQ1PlMKOiA34oiLInw29nRNDSO3BBBcm8DGEn88f2TbvxbtkvghPg85/dNZ/PHkCt8wCB7LEqVaanYS28ixXsB74xTE2kffwhOV+mw82OK2BO+fwxjit5xJ7tgYil0Tv+X4GNtNnCn4sRAnK/LQeBzi79wTF/jcga+tv+c6Jvs6fVYFtuC7KCaeO3cuubY/8Drv8yv88t3OEFUFKXd85tqCvmodf5Zilhto1c1I+Jv6PEz1GvEpYi3vzrkSp1i3sLP6bY3KBNRgKXgpbIR+hMmpkBrLb1mY3BAcCxqDV40ta8rSh7kg3jr2yFb9gbw/9vipvNbqE9q2Lf2uMIbntyKzbROPz22PB2uctu3TmvhzC3W+0QGpsL3LtuKUAXGG/+fkN8FBWsKHeB40DcPkjQbH0BZCxieaJvH/Ywzxx/3fVLQdi10TP8Tngn1sYk38ViGvqYWitbBEk2pekNYB+EJiE6kcHGGH26OF+XzbMYA1wNlfMbz4rXx/F/p+F8UfO02aFc161nL++F56TbgT0LrOvuuQ+lE75PjM3opnkTnxZtUP3CCsH61j1Qr8pJWcYwBrZtv169frR2JIwglGHvW9jaWTplmZa+K3OtoCUTsvXT9Lk/OeJhB+quCWS8qgYSxy9i/VJ87y14/EkFjGW31vc/78+frRKU2zaE/W7WeQM4e7DYTvQuXsE0ClHq/eBbbNd3SJHFKkbiN2fHycVTFO3YyEXxNS0UaK27dvr37+/Fk/G59r166tPn78WD8rg9W/nDcMdwn4NSb+ZSX33OWQM+YtLKeQE6HGPHr0KCv6zMEaqzg46/6aFVXw77By47CR45CTN+UQKeJqbVMjb8nJ8XOw8kVaWwExhGOOP0/NoA9OfGe2NWa7detWvSflGDrnt8ZOqr7Th3jbY7eSfWUV2Z1hqf97lrWw37JceGGsLNYWC9In5HI7VXnylGVkm4T3fAetjwW1SIU8ubcUByttKLV/op3U/A5xFkubWTk/oZqf2EJIy2Maj0sIktAmtX0XTVQGolQo50kJN/d7GHiWAbEmVIhhUM6fT9d+KXavvl3EykcxQkQhOZTM9+HNmzerX79+1c/G59KlS6uHDx/Wz8owdM5PTh7n1ziLUgYgmQ+3cHBwsGaYcCr379+vn+XD5zYtanusuh3bxrGaIP454gR6Jv+hkRflYuX7btDV/xUwdM7vxHFm+33qTqVhHIT7VPKY++Ii6bV9ojXVt87M7Z8LqZ/ouqQv1nUHpVMTIUrRtT6yKPETqueG63SkVSzRBJNxscL7roN8yTSlR7MV/6ZV+tQVUV22ITZH4s/HclaLEz+Dw/L8Xby2ZTzoSIX942JFahK/jdUv1qw/zyzFj/Ctjujita2f+Ph8kyUV5bEGb6qes3S6jvnZit+ii9e2QiiF/ONj9bk8v823b9/qR6csTvypfD/Xa6eMR2pyD9cvyBsNg2WwrUEubKO4uJzfEmIXr5/yLJYV5cITLlyK17dfAvSTFSGV9MwM3ngA634PNvH4a3N4sxM/HWANyBJTcsNBzeP4ijPre+dMah1DxFmyL+IZcPR9SQMzBxj3cZ+0ObzZiT/lFZpyn5jUe72XZ0oont4PfqxribUHpgKDjFQnvnWWh/8zLbpUJGQZ7qVFWW30uQZldnP7GXTxb/T8XMR8/C6k1gGIwVAwdzp38tCUYEAdHR2deFoafdLVq+OBwvCdv1xn3hSShvC9rCYd0nid+giwP+yXp+T1DH2Ixz19y5hv7ONqku+McCLsNL85xbGx8Gfc3KDeiXnmQ9G2xsMmrWu/xefVDer6P9uB7w/3Z5tz++nLPvszq7DfeyesXdj6TMnFW6WuhuJ/WHkudWb7cyXux5KtK3j6EB+FiH8RWhiFACsEtTHrS3pLQTjFQGPQEuZ3qR+IcsSp2DZD7bjYSdrXVmAbCupPYc7PfuCY2pD4xWRAcBRdPRhjFoSZY70lFwqf8TX8RKw5xedZ/s4v5gmePhQ6oS6LaiyZ+Pjx+rm/Osnzi0lhra7Ud2WlqRP3BZEQXj83/ZDnF5MCrxZ7tjAVWApEPfE8Cxam7VJ3kPjF5KDIFxZdKXYx6WhJYPDCiU6Ivuv6/wr7xSSh6k+hK/yJi4VZS90AY5eJp5VjCPv87CzPLyYJOX484PH+25z1NzQYOkv45PldhV+B5xdiqrBirTME1aw231wIXPSuPrsAx+mEXvQ4JX4xeZjeynTWUBi0pltVTQWOjeNwnv3kuHjMa5tOLZf4xWzgWoQ4CqBx/4UpwjUpoehpeHuigBIo5xezgUlA/OYf3xdyqiv/hNfoU82nxkELj20TVO0XswXxMBEG4dCmBoU9ftVgXkMpwYdI/EIsFIX9QiwUiV+IhSLxC7FQJH4hForEL8QiWa3+B7ZCU18I9SyqAAAAAElFTkSuQmCC;container=0;" parent="1" vertex="1">
                    <mxGeometry x="-239.89999999999998" y="163.58" width="44.9" height="17.61" as="geometry"/>
                </mxCell>
                <mxCell id="360" value="" style="edgeStyle=none;html=1;entryX=0;entryY=0.5;entryDx=0;entryDy=0;" parent="1" target="358" edge="1">
                    <mxGeometry relative="1" as="geometry">
                        <mxPoint x="-291" y="320" as="sourcePoint"/>
                    </mxGeometry>
                </mxCell>
                <mxCell id="362" value="" style="shape=image;verticalLabelPosition=bottom;labelBackgroundColor=default;verticalAlign=top;aspect=fixed;imageAspect=0;image=data:image/png,iVBORw0KGgoAAAANSUhEUgAAAF4AAABHCAYAAACOC/A9AAAAAXNSR0IArs4c6QAAAARnQU1BAACxjwv8YQUAAAAJcEhZcwAADsMAAA7DAcdvqGQAAAXFSURBVHhe7ZyBNTw/EMfXVUAFdIAK0AEVoAMqoIN7KqCDo4KjAlRAB6jAPx8vYX+5SXZm19r/5fbz3rzb5TKb/WYyyWbD2qejGvlzJv5z5I8ZhR+IUfiBGIUfiFH4gRiFH4jG6eT9/X319PRUPT8/V6+vr9X7+3u1tbX19bvt7e3q5OTk+7wt+MS3lp2dHX+0xCB8zNvb2+fFxcWnu0EapdHOzs58yXbMZjPRr2TUqQQWhJ/P558ugsWbztn+/r73YIdGlnxK5nqYL7XcfOd4uvv5+Xl1cHBg6vYBUtLNzY0/s0Ea07K3t+ePlhzUJ7UcHh6KEWax9fX1r9a0YulhLy8vvtRyUz0+PiZvvE3KsQrD9SU/klGfUpgcHR0tpBaXr2mQyolYud5gmrXc3t76Ix2kKC1FzGY8k1h0N0Op3AD7fZMufVTHx8dfxxoYKyxY8jvT11KY1KPIzS6q6XTqz36wRLwVS8TTE0thEqKbSL+8vPQ//hssD070vKKE54bI51KkByzpw9I7VjW/g2qt5uHhwR81Q0NqWbllghoq4Vmr0WIRyNKgxTw4Bfy0Mgnzcr6mMSe6L6XD8pzAQ15JNEZ8X9GOX22qwa8lhS0DjcLf3d35o2Ys6cDSoCXNZgKNwvc1z17p/O7ICm9NB5apZF8pbFloFF6LJdp5LtD6tjbospAVvq90sOrRDlnh+3qytAhfYn6HpPCI01d+t/SkEmc0kBVei1UcrW8as8T8Dknh+5q/k74sPalUfiXiLQJZxo2SXnws4JcO/sHyHtSJ7ks1w3qLe/QX/UjGVpNSESO+r2hn+4d2bb+0Fx8xovCWFx/adIDPq6srf9bMb+V3gog3a7u7u9XGxka1trb2tXdIsweIsSguyycbBNruIfrGR/4/WPbYsP1OA9v8pPIp67otkLSGj1xqS9VdUxZzPdKXsCMKT96WLiSZZh/N9fW1WDZn2gaVoE6IIvmtG8LGML5Z7n86nfqSNkTh3dxZvIhkTcJzI5YBNVhuYKUhU7/nenH9c/dT9yPVlUbIlZcaT4MovEWo3JuhWAT8aqOJshJ1cWLxY+G4VvBDPSUBQ8TWy/LJ5th6HThONUD9e1o6C5+6KKLEfkgf2p3Bkl/JZ138ujAIFweFNM7Qe+i1oSz+U2kulTLbpMXOOZ6BuA43i7ixQCGyEKT+85TFuZPz2CfniBHg2tQdgaWemBI+jAeIn0udBENcHvs14aUK5oybRWzKSY3G7wIW33yXspLPXGRKooM0Wwui468pZfQuPN1XukAbq4sOqe5qsZzoOVI5GtP4S+mimdnFiMKDJd1IFqeBANEofV9r1KvNjXJd6iT5pGdpIN3FZWnMNiSF5+bii2gNcXLdll4glWsyBEqlkSZS0YpwWp+pVNWGpPCAeLnuGRsRRVRobsSS67m5pvzbhBStWDyI55C00PaWmKzwASqXSj2IjTBawesQhWFwi43rcVNdBQ9I0UrdtXXme3F5rM1YAyrh65CCEAOzCp2jL7+BrtGKwHF5rM14A2bhlxEaUxLNEq3S8we9si3JN1AlkXrr5YTzR81IPizlY1ZCeGlXA6K59OPP8rCmL70n7rL1ZCWEl96odY12cBMDf2SneOF589U1WqUe42ZEnbaeFC/8b0Sr1GO6RDsUL7wkmiVaU/m969aT4oWX/oDZEq2pzVddZjRQtPDkdynVWHJzSnip8bje6empP8tTtPCkCWmrimVglcoT7aSrOnwvbBthO4hUrk7xwktY0sTHx4c/+iHuBVwHsVPXkyha+K4PTrC5uemPfggpheiO/7kS/ufzefNfKfqlgyJxAi+sr1iXcVOrkpK5vK9e4Cs24n9rGkjkusbyZzJ8ZzqdVrPZrDnSA74BioOVRyfCgrVdxqWnIFfd8EeUs/ppZfw35gboQUxPyfHkcml2o2UUfiCKntX8nxmFH4hR+IEYhR+IUfiBGIUfhKr6DyysM9zxDOhZAAAAAElFTkSuQmCC;container=0;" parent="1" vertex="1">
                    <mxGeometry x="-310" y="299" width="24.16" height="18.25" as="geometry"/>
                </mxCell>
                <mxCell id="376" style="edgeStyle=none;html=1;entryX=0.024;entryY=0.463;entryDx=0;entryDy=0;entryPerimeter=0;startArrow=none;" parent="1" source="390" edge="1">
                    <mxGeometry relative="1" as="geometry">
                        <mxPoint x="21.99250000000029" y="252.98300000000017" as="targetPoint"/>
                    </mxGeometry>
                </mxCell>
                <mxCell id="365" value="" style="shape=sumEllipse;perimeter=ellipsePerimeter;whiteSpace=wrap;html=1;backgroundOutline=1;container=0;" parent="1" vertex="1">
                    <mxGeometry x="-92.5" y="231.5" width="42" height="42" as="geometry"/>
                </mxCell>
                <mxCell id="366" value="" style="endArrow=classic;html=1;exitX=1;exitY=0.5;exitDx=0;exitDy=0;entryX=0.5;entryY=0;entryDx=0;entryDy=0;" parent="1" source="332" target="365" edge="1">
                    <mxGeometry width="50" height="50" relative="1" as="geometry">
                        <mxPoint x="-118" y="239" as="sourcePoint"/>
                        <mxPoint x="-68" y="189" as="targetPoint"/>
                        <Array as="points">
                            <mxPoint x="-71" y="183"/>
                        </Array>
                    </mxGeometry>
                </mxCell>
                <mxCell id="367" value="" style="endArrow=classic;html=1;exitX=1;exitY=0.5;exitDx=0;exitDy=0;entryX=0.5;entryY=1;entryDx=0;entryDy=0;" parent="1" source="358" target="365" edge="1">
                    <mxGeometry width="50" height="50" relative="1" as="geometry">
                        <mxPoint x="-119" y="369.00000000000045" as="sourcePoint"/>
                        <mxPoint x="-47.5" y="320.00000000000045" as="targetPoint"/>
                        <Array as="points">
                            <mxPoint x="-71" y="320"/>
                        </Array>
                    </mxGeometry>
                </mxCell>
                <mxCell id="379" style="edgeStyle=none;html=1;" parent="1" target="377" edge="1">
                    <mxGeometry relative="1" as="geometry">
                        <mxPoint x="154" y="320" as="sourcePoint"/>
                    </mxGeometry>
                </mxCell>
                <mxCell id="377" value="" style="shape=sumEllipse;perimeter=ellipsePerimeter;whiteSpace=wrap;html=1;backgroundOutline=1;container=0;" parent="1" vertex="1">
                    <mxGeometry x="133" y="233" width="42" height="42" as="geometry"/>
                </mxCell>
                <mxCell id="378" value="" style="edgeStyle=none;html=1;" parent="1" target="377" edge="1">
                    <mxGeometry relative="1" as="geometry">
                        <mxPoint x="62.25250000000051" y="254.3871378149879" as="sourcePoint"/>
                    </mxGeometry>
                </mxCell>
                <mxCell id="385" style="edgeStyle=none;html=1;entryX=0;entryY=0.5;entryDx=0;entryDy=0;" parent="1" source="377" target="382" edge="1">
                    <mxGeometry relative="1" as="geometry"/>
                </mxCell>
                <mxCell id="388" style="edgeStyle=none;html=1;startArrow=none;" parent="1" source="416" edge="1">
                    <mxGeometry relative="1" as="geometry">
                        <mxPoint x="461" y="255" as="targetPoint"/>
                    </mxGeometry>
                </mxCell>
                <mxCell id="386" value="" style="shape=sumEllipse;perimeter=ellipsePerimeter;whiteSpace=wrap;html=1;backgroundOutline=1;container=0;" parent="1" vertex="1">
                    <mxGeometry x="338" y="234" width="42" height="42" as="geometry"/>
                </mxCell>
                <mxCell id="387" style="edgeStyle=none;html=1;entryX=0;entryY=0.5;entryDx=0;entryDy=0;" parent="1" source="382" target="386" edge="1">
                    <mxGeometry relative="1" as="geometry"/>
                </mxCell>
                <mxCell id="389" value="" style="shape=image;verticalLabelPosition=bottom;labelBackgroundColor=default;verticalAlign=top;aspect=fixed;imageAspect=0;image=data:image/png,iVBORw0KGgoAAAANSUhEUgAAAF0AAABTCAYAAAD9ewuzAAAAAXNSR0IArs4c6QAAAARnQU1BAACxjwv8YQUAAAAJcEhZcwAADsMAAA7DAcdvqGQAAAUWSURBVHhe7ZyBVeQgEIb3rgLtQCtQK1ArUDvQCtQKtAPtwBLUCtQK1Aq0A+3gjj8P3nHsQGYgG4Sd7715kt2FJH9gZiCJv/4YFsqs/LZ/lRlR0SugoldARa+Ail4BFb0CKnoFVPQKqOgVUNEroKJXQEWvgIpeARW9Aip6BVT0CqjoFZjkztHz87MtzcvBwYEtNQZEL+Hr6wsXrYrd39/bo2iLYvfy9vZmS/NzeXlpS23RtOjf39+Lz89Pu9UOxT795ORk8fDwYLdoNjY2BkuRI55xL4vj42O71RCDkylga2trydc6293d/XNzczP4/RT43gRFso2YXVxc2NrtUST66+srKQgMIo6J7Tg9PSXbiBl+z237J1IkOrIHShT0cK4oGAlUGzHDyGpZcFAk+tXV1ZIoxncPI4CDVHBJ2z+ZItFNEFsSBkJygHgQMayfslbz8pAi0UPR4Mc55AjecuAMyRadCqJPT0/22zjwx/D5Yd2UYUS17sd9svN0TEzCidHYWgjqnJ2djeb1PiZwLswFHs3zm2KQfiaowJsyuCDO6GmN2US/u7sjhU0Z6vTILKKve+AMWbnoOYFTMpttkZWLTuXyKethxjnGSkXXwEmzMtFzAid3Nts6KxFdA2eayUXPCZySVckemFz0nMD58fFha68Hk4qes1Tby8qhhMlEh3hSP74ugTNkEtHhHjRw8ikWvaXAWbJP1J3qmItFl95UxojgBE5MkhCUnWE/OaAdXGR/JGKZgRNLUBf7DUcxjqdkMa5I9FUGTgjj18WJSsBcAXX8NkKLzX5RlzN6c11ktug4YKkf5/YOXJiwLpYUuHCPDelqCDqS5Lxysq8s0VcdOMNeDuOeXCgayqle67u6cOSiLkYLdTzO8J0UsegIJqmDoEzycFDMZXHqh3X9/eKv/50z52L8uhAb2/4+4XL8er5JEddAj6V2HDNJphJbs0EbY4SiQrQQqrNAdLg9t1/8JhboY+fOPT+HSPRYL4yZRHCcKHws1Q7XNbmLFosdlOhwW77gqeONrZxysjEftujSwMldU8FJou2Y4LCS9Mwn3AfOx33G6SAx0aWwHsHAY8x7e3vDIxRczAmNPsaMdvEYx1i75uINj2KUgH1sbm7arf/BsZpRMrqP29vbpRcRUAfHJ2KQPgGuvjRwTmnojVOQCoTczIjK+6XzBzD6JgZ6Qc23Hcywt6UyYi+jYTSOjUgH9dZJzghkvf5iAqgtzc9Uor+8vNjS/5yfn9tSGrgnqvPt7+/bEh/2Y3XX19e2NC/ohVMIv729vSQa2jauxW6lwaOAeNUnJCveDE6mc2L+XDKFp55sQMaTw1q8MR17A1Aygij3lJtRrYXolGAQnCsa/DkViI+OjmxJxlqITgkm6eWxzMek0rYko3vRp8g6Hh8fbekfSKXVvUSYopdSbeT2ctC96FQQlfRS1KdGys7Oji3J6V709/d3W/qHpJfGZuMlc4euRY9lHRJfHBNd3UsECAbhQyRBNJZuwkWFwBVRs9aQrkWPBdES1wCo+hD88PBwWC7A3xRdi146KQLUSAldjhPa/Xb0otrlgC4x4i6tl0gfWordF8XnWI8xAi99Pka3oscWuaS3/nArkWonNNxsoW6GU3Qr+lQ3kYHJVMi2nGFESVYsuxUdvQ5DP7Rc4JZCsV3v5j7x4Cj+H17rhMv7kS66WS2VOo6holeg+2WAn4iKXgEVvQIqegVU9Aqo6BVQ0WdnsfgLowaG6V0npJwAAAAASUVORK5CYII=;container=0;" parent="1" vertex="1">
                    <mxGeometry x="125" y="299" width="21.5" height="19.19" as="geometry"/>
                </mxCell>
                <mxCell id="391" value="" style="edgeStyle=none;html=1;entryDx=0;entryDy=0;entryPerimeter=0;endArrow=none;" parent="1" source="365" target="390" edge="1">
                    <mxGeometry relative="1" as="geometry">
                        <mxPoint x="21.99250000000029" y="252.98299999999995" as="targetPoint"/>
                        <mxPoint x="-50.500000000001364" y="252.5" as="sourcePoint"/>
                    </mxGeometry>
                </mxCell>
                <mxCell id="392" style="edgeStyle=none;html=1;entryX=0.5;entryY=0;entryDx=0;entryDy=0;exitX=1.137;exitY=0.574;exitDx=0;exitDy=0;exitPerimeter=0;" parent="1" source="390" target="386" edge="1">
                    <mxGeometry relative="1" as="geometry">
                        <mxPoint x="153" y="174" as="targetPoint"/>
                        <Array as="points">
                            <mxPoint x="-6" y="164"/>
                            <mxPoint x="359" y="164"/>
                        </Array>
                    </mxGeometry>
                </mxCell>
                <mxCell id="390" value="" style="shape=waypoint;sketch=0;fillStyle=solid;size=6;pointerEvents=1;points=[];fillColor=none;resizable=0;rotatable=0;perimeter=centerPerimeter;snapToPoint=1;container=0;" parent="1" vertex="1">
                    <mxGeometry x="-15.82000000000005" y="242.5" width="20" height="20" as="geometry"/>
                </mxCell>
                <mxCell id="393" value="" style="shape=image;verticalLabelPosition=bottom;labelBackgroundColor=default;verticalAlign=top;aspect=fixed;imageAspect=0;image=data:image/png,iVBORw0KGgoAAAANSUhEUgAAAIwAAABRCAYAAAAAYE7PAAAAAXNSR0IArs4c6QAAAARnQU1BAACxjwv8YQUAAAAJcEhZcwAADsMAAA7DAcdvqGQAAAgtSURBVHhe7ZzBcdU8EMedMJwTKuClAsKZA7lxBApgJlQAqQCoIHQQUkFCAwQqACog4cAVOsjnnyPxLYtkSbaTZ5n9zezEz7FlW/prdy3pvY3LlsYwMtl0fw0jCxOMUYQJxijCBGMUYYIxijDBGEWYYIwiJhuH+fXrV/PmzZvmy5cvbk/TbG9vN4eHh81qtXJ7jOpBMGM5Ojq6bMWB8IL28uVLd6RRO6ME8/nz58snT54ERaINQSEso24GCebnz5+d1+jzKjHb3d29/PbtmyvJqI1iwZydnV22OUlQDAgIIeF5Tk5OosdhFqbqJFsweJX9/f1g4yOUV69edcdoEFjfeRam6iIpGEQQS2rZ174FBYWiwevEhLO3t2dhqhJ6BYN3IOcINXCuUDQIIyYcC1PzJygYhBBKahEKuckQoYRAdLJ8DIFamJovQcHoZBWhEFKuC4Sjr8k+Y34EBUPIwLtct1A0Xjhcm3BozI/g1ADD/Ofn500bHtyem4XphXVd2+jH1vQaRdhstVHEYA9DyHr37l3z/v37LoR5CCWPHz9u2jzI7enn48ePzfHxcReGfDlt7tS8ePHCwtIcQTAlxF65tTHym4JyQudiNpA3T4oEg1hyZ6cxxmxixAbvMMRozJMiwZSIBYs1fGjAThrXMeZJdtL79u3b5vT0tNtuhdC0IadbTdeHfz2XkPccHBy4T2FWtkJvvjjh9EI+IXMWGWrIVfz+kMkRW10OxkAdA4RyX18oM9ZLtmB8zsFfCXmNbGxtPrxwnBYGSa+fl2IOCTFhlvDOl6IchmmCUGNqIUhDAKA9kc1M10mRYGKkwpL+v/ZSRj1MMjVAMvz06VP3qR8G487OzrrE2aiPSaYGGJnNAZEcHR0tWixy1HvdXMe9TCIYBJB6FfZiWepwP1McDBfcv3+/ef78udu7XrinjY2NzvuzPQldYJqAvmF+bKkLovRUCX/nMvDI8IS/L4w30bHrmyYTTCrx9a/PS4JFXlIoJPNzHBLQI+u01VAmEwxqljel7SZX7t0EshEQy9wHG/U4GNtDmEww9Cx/MyFbUkiSYsHN1zTQOFY0N5bDjHGDc0LmBfyt0XMi8qHtMolg+FqIv4GYLWEGGrfuxYLV+nUYnkO2TYnoRwuGi8lKjBnH1I70orV3APmSwgRwLqMEg1Kle0vZlLG+5K2LY0uOD8G9y45R+9dgqA+E4p8n11sOFgwXpJf5C1KZqTxmrAvnmnLMA4vNS3Es+QaClsdzz0OEK3skZS4B2V65EWCwYLQ4qFAaSe7TNibx1YNQ0rRoCJN9no9ySkTDc8lrj3mOOaHbK8drDhKMHgiS8Vy6OW0hFXPTqcbTYx6yTL+PckDmVPyNCadkxlyPMU0ZWteNbK+cOokKhornPR2ToUSLRTYWpMKSrmxfHueFGkKGAo7119LC5FwpFh5e3pcMnxjH5SLPXUo48pSGpahg5KsyBVFwqLfqEU55XsikO6dBfQNjoRyHhucY/T/2y3L9MD2m7wm0l+C4XKQ4pTddArq9Ut4zKhjdICFDRBpEEDrWm298Glj23L6GCMVWeS5l4gljYgHK8MdjiCAHKlCeF3rmmtH1ghfvIyqYvlwE64t3fQlnyLiWDB85hO6vLxnVPSl3WFxXaEyQtaI7eCqhj/56w507d9ynv2kru2krLroQqmQFHmW0jVK0TiZ0f9wT5cTgazLy6y2tp0h+TQb0eTx3693cp3w+fPjQfP/+3X2anlu3bjXPnj1zn8qgLv1iK56NZ4zSyUahe5U0emaON8gJaZSVipkh6OW6LO65DxnCsFC+FEIm3diQ+4UHDx78Uc7Udvv2bXelcgjlvpxUUh9dcde6fLd1BT2YHkkvjnkWSdsg3fHac3AuZfF/lKyvk4P8eXqgV1BmH/qc1PGei4sLt7VcZBuklnUmF4HzzUUaOUckffgbGVsOEO78tzAhFSYQC0snPdxD6yXdp35Ybsm3NT2thxkk8kePHjVfv351n6Znc3Oz+fHjh/tUBnXjOxTPxjNG6fxMRRAO2wb/7UKxVJgg85fHE55y0aG1NDmvAfmS0grG7Q1T3Q8K4fGk28RbpHr8p0+f3NYV9+7dc1tptEdMuewaKXmm6gSjV7+nchEqQ59T8kamWaJgJKmUoTrBlHoL+ctWQIXkJrywtbXltq5YuodZnGD0207KW+jjCV+pSpHo8vXPl9SODvGp8F6VYGh83WApb6HfTELH93kNXYFL8zD6ee7eveu2wlQnGAm9P+UtdIU8fPjQbV3BSO7Ozs5fZXu0YHRIrJ1Sj12VYHRj5eQi2iP5zwjp9evX3bA/2zHBIEhZiZN95XQm6PpJCaaqcZi2t/8xJsIUQQq53sMbYyttxXTbrSCS0wS6jCWNxbSd7vdz5YxPVSMYGkk2GpYzr8OiKn2eN8SSIzp97dx5qLmjnys1Uw3VCIbJRTyMNzxELjSwrBiEgpcpmUiU3q1kpHjOyBFw6iSnPqqbGhgDosPjDAkpWnQlYpsrMhz1rW+S/FOCGYv0MrkVPFfkEhG8Cx0pBxNMAXqdUK1eBg/rk34sJ3fxmGAKkbPXuPQakYvCEE5JiDbBDED2ztpCk8zFSkKRxwQzAO3SaxENb0WIxIslZ0hBY4IZCKKRbxkIaK45DfcqBx+519Qa6BgmmJHo1Xw0zFyEw31wP96rYHjDkpxFY4KZAN2D5zKw58WMYPCGpflKiEl+Cdz4Hxanr1ar9CTeDcCkKgvYWSDPPU2BCcYooroVd8Z6McEYRZhgjCJMMEYRJhijCBOMUUDT/AcYf02Kc0vVygAAAABJRU5ErkJggg==;container=0;" parent="1" vertex="1">
                    <mxGeometry x="-45" y="230.89" width="34.57" height="20" as="geometry"/>
                </mxCell>
                <mxCell id="394" value="" style="shape=image;verticalLabelPosition=bottom;labelBackgroundColor=default;verticalAlign=top;aspect=fixed;imageAspect=0;image=data:image/png,iVBORw0KGgoAAAANSUhEUgAAAJkAAABOCAYAAAAzZ7QtAAAAAXNSR0IArs4c6QAAAARnQU1BAACxjwv8YQUAAAAJcEhZcwAADsMAAA7DAcdvqGQAAAhbSURBVHhe7Z2BlZU6EIbZ14BagWsHWoFagWsFrhWoFaxWoFagVqBWsFqBWoF2oB3sy8dmPOMYIASSveB85+Rc4EIC4WdmmOTuHl0EOsepyH/x03Gq4SJzquMic6rjInOq4yJzquMic6rTLIXx69ev7sWLF93Xr1/jlq67fv169+jRo+7k5CRucXYJIqvN+fn5xfHxMWJOltPT04vv37/HvZ29UVVkP3/+7AWUElaqvHz5Mh7p7IkqIkNcb968uQjuMCmmsXL79u2LL1++xJqcPbC6yHCNCCUlIER37969XkTsN2blnj592ovV2T6riQxBIIyU9WIb36UsFNvGxIZFdLbNKiIbCuwR19nZWVZQzz5DYnMXum0WiYwbf3Jy8pcoEBdBfKm741hbJwVr6GyPIpENuUbirSXislCXtZC06S50WxSJzAb2iOv9+/fVAvWU2LCgzjYoEhmWRMTVMlZCyLRJ2yw726B4WInhoWDR4lpbrrJtZz4+/dqpjs/CcKpTzZIx6+LVq1fd58+f+2UK4OYePHjQnZ6e9utT4BrfvXvXffr06Y86njx50oX4rF93DhxEtja8Ddr0hi0E8FOM1eOB/3ZYXWRrzbrgu9QxUnxq0HZYVWQkaFOCGCpYqRRTAiNP52yH1USG+xIRIB7GLHOm+9jsPXm3qWM8EbstVhEZmX4tDO0GJXE7VLRgqAcrpb+nXknAShlzs87hsYrI9AyKVEA/NvUaEQl2sJ11GaqSsVKKB/3bYtWYDFeXGmaaitUQqY3DEG2tsVCnLauKbAgdr6WKndGBy3SB7Ycmw0okUW/cuBHXxgmutTs/P+8/nX3QZFgpWKks0bBfcJu7F5iMXPwrNBu7ZChoirOzs93+0BdhPX/+vLtz50738OHDuPVqYcju6OioP5+3b9/GrRXonWYDyJvR3FAhLtsjxJY65uQzZ0itBbyk6Td/YuEas46biWwq+G85+bEV9gc2iOsQrxNh6fNc+4FvJjKeaLmIVNlbglWPdvBZw0Ksjc5TrvmG30xkIJ2eKrjTvWAFtqXksc5pIrQ1aCYym2y1RQ8vbRncYW2BIQSS1ZQa9WuLtsZ9aSIy3fFDhe+3Du5Fj7PWss66L2u0wXXoGG2pkKuLzJ7wWFkrBrgqtLXmmmtdT22RgX5RW2oAqubJyA09fvy4+/HjR9wyjv4DeUuZm/BcmiDleP7InxBufp9c3irkK8OD0i9Ljq+UqiKj0z98+BDXui4ExHEpzVKRSWeQ8GQYSxKNQwLidwOyr96f7XPh9wzSDuLiJm0dHhTh9evXcamAaNFWxwb6knsZc51LgsyhP/pCsclP3JgOblOF+ubAm5gcu3aeydLCXQL9JO1QStMwVUSmX+EpOueiA2Nbhnz/1Hx+BC3t8anbliJ1pLLcqf3nvL5Tpz62dspCn29NkYG+X/ZhzaVYZIiGRin6QvUNp7CsrQL7ynepYm+QBKBYnpTYdHt6Dpq1VJwDx4vAOG+dfU9ZNqlrCntNuceV0lJka1xbsci4abpxbnDqRiECjX5rSRXqEUTI8l2qQ6UT7He2c7Cu4tLsOQEC1PtTcjtUX/ccC1hKS5HZ+1XiMotFxo3SjafKUGyiOylVuBCsjL15Qzc95Z4Qq65T6koJDFIiS1nOFNr96oekFi1FRp9LW6XtFYssZbV0GROFFcBUoVPnBuKp8xsLyG1chXBysMfVDvqhpchAt0e/zqV4ZuytW7cG819BYP3s1nByccuf8KqfO1OWOoJlm50SsOcXRNMFQQyeE/OpyOkJwU331zAF6Y779+/Htcs0TXiI4lo+pG9yUzjPnj37nS6hX/izDzmw79D1j0GaR86NfgwWvl/OppfaTFKuRQoxVI6byXG3WMO5FgysdaFMxRI2hsu1SNSrj0u57hxoT9dTo9AvJei4GKs2l+JkLNZKw3oQThc6OWv6dOjU/qnHYmh40thGXVgS+30ONpnK+UxZQv4wjObu3btxaZyhRO+e0Nav6Hqj2IrBauW+hY1BHWvUAzbmm7JKNril5Ab91iKXWF7AkmIlcopuL/X9UCm1ZMRhus2592mxyA4RgnbdKVMuzL6m46ZzsW62VGRzQDDSXovAf6nImv2QpBWYc/tCYl27xQbcU/trwg2PS/8Oc695dyKz8RiCmYoR+SN7mtx4DGyH7zFGW3pNuxPZXKuE1bOWb87LhhXZUFpny2iR5bzUWXYnsm/fvsWlS6askhUlopnTkSWdvjVcZAo6w7rLKauUY8XG3IXtdJsK2Tpcu+6jf15kWCUtiByrZC2f3Z+RAEYPhiYy2jbGBLlF7EM4J14VdicyTUki99q1a3HpcrarDOF8/Pgxbv0bnei157B15nqGFLsSmXVVOab95s2bcekSpowzhsl4nQiM0QlGIIbQTzf770louk/pz5w+/YuYL9sFoQP+SBrmjCOmsv1SgiscnBqksXXkHLMEzkvaqp2M1X2aO55r2Y0lk9hBnjZKTlKVmMrOtmAbboHtWLEp2F/PvNC/Wtoy/AhIx2S5sz0s/r+VFMQfCAaB8jkHbgYvCALTiuaMHMxBx0nyQNWAX27Jr82IO5n8UERvz5xV0GN8LG8ZJgiEB+339SwZk3WRrYiNzVoMltdizQfGRbYyehIjlmCL6OlLXMPcWRcWF1kFtBUILxBx6zZgzpm4ST5z3tCncJFVAnFtTWi4dy2wqSnrubjIKkJeSYQW3jSLZ6bWBnfIua5twQQXWWWwBnLzKLjSQ3khQFwkc49VwhWrmzv1PBcXWSMIpkVsWLVDQE87R1y1xO/J2Mbo5OZVwzgrs0yCwKoljsFF5lRnV7MwnMPEReZUx0XmVMdF5lSm6/4HYs2S091j8qcAAAAASUVORK5CYII=;container=0;" parent="1" vertex="1">
                    <mxGeometry x="385" y="234" width="36" height="18.35" as="geometry"/>
                </mxCell>
                <mxCell id="396" value="" style="endArrow=none;html=1;" parent="1" edge="1">
                    <mxGeometry width="50" height="50" relative="1" as="geometry">
                        <mxPoint x="122" y="245.5" as="sourcePoint"/>
                        <mxPoint x="132" y="245.5" as="targetPoint"/>
                    </mxGeometry>
                </mxCell>
                <mxCell id="397" value="" style="shape=image;verticalLabelPosition=bottom;labelBackgroundColor=default;verticalAlign=top;aspect=fixed;imageAspect=0;image=data:image/png,iVBORw0KGgoAAAANSUhEUgAAAHEAAABfCAYAAADf2CiWAAAAAXNSR0IArs4c6QAAAARnQU1BAACxjwv8YQUAAAAJcEhZcwAADsMAAA7DAcdvqGQAAAbRSURBVHhe7Z2NOTQ7FMfHrYAKUAEqoAQqsB2gAlSwVEAHqAAVoAI6QAVufnMzz503TmaSncxu5rz5Pc95zH7MbCb/nI9kg7UfQ1WYNP/Yn4UJU0RUQBFRAUVEBRQRFVBEVEARUQFFRAUUERVQRFRAEVEBRUQFFBEVUERUQBFRAUVEBRQRFVBEVEARUQFFRAUUERVQRFRAEVEBK9l3+vHxUd3f31cPDw/V19dXbbC1tVXbzs5OdXp6Wj+3CE9PT/aon4ODA3s0YRBxWby8vPwcHh7+rK+vM3B67fz83J4ZDp8hXctnNzc39szpsjQR5/N5sHhtM55irxAGokjX8RltmjpLEREBpQ4MtdlsZq/UD57I55mwLF5Lsru7O3v2NBldxKECNvb+/m6vGE6IkHji5+enPWOajFqdUrxcXl7aR/9hOq3a3d21j8JxrxPC8fGxPfJDYUObJo0VMzmMbjcHUtQ0oz62AFnEY0Ly49RDKYwmopki/NFZhDZXBPc9fRZbSfaJqCGUwijhtJn3tTEd+itsmSmEPQrj+fnZHoUhtaPNycnJ9EMpWDFHg8KGMOojporkvTFQ1UrXaWyRYilHRl92Y+XF5B376DchxUdDn2e5dL3fDKx6dUgDK187jalUEeX19dU+6qdr+Y1QqoWVi4hHxOSl0HVRxPZ5ItMKFWumlpWLCLHeGAJzVB+avBAmJ+Lb25s96sZXyeKBeL8mshBxf3/fHvUTkhN5jy/savNCyELEmPwUEk59oVSjF9bYqcbKiZkvds3vWIHxXevx8dG+SxdZeCLEeAg7A3wQRqXXub6mirRNNiKyJSOUrrx4fX1tj/6HKUzsEt+UyEbEFHmRXCgVNLPZbKGvvyaDDatZQHNCzIRGe8afmIHw671avqnoIhtPhFBvkcKpzwvVfFPRQVYihoZUN5zyWMqFDIohWx+nQlYihk76Ea0t5O3treiF8/lcvRfW2LCaBeQumhRibO9oziHvua+za+BvIStPjPGaJi+enZ39Cq9cZ4wphRsBYhlybhdZiQihxQ0dQjFDKHVBwFRhlM+5uLio9vb2qu3t7WpjY6NaW1urjo6OOhcdgHOvrq7qczmvOTf0/GCsR2ZD6OYpphlSGPVNPxaBZbqu5UA+3zd96Tu3sRS77bITMXYbftvo1CZXDoXfA5E+wzU39yJq6EDEaPPQvT7ZicgIlm42xNiUNRREcDdY0dHSQgKGtzVwLpGg/bpJD/W5XV45tN3ZiUhHSDfaZ3SUL7SF4oqAeHRwc10pSvAecM+lPW5U8Hn30BSQnYgQkkvaliqMkp/a13S/upIGWOOJ7RDKsW9ASfeGtw4hSxH79ou6liKMNuBtvkFB7nI/GwH4/OYx3taFFJZVihhaVGApq9E+ENb9fDwL0Tl2ixwJN2diCDuE7OaJEDpXNJ231O8JpXkdzzEfNOLUy3x9SBP+0Pv1kaWIZmTao274/Y6hHRCD78toBhNtCUEaCDFfiEtkKSKdgnVhQtfSNz35tksSDfraCwwCScSQczuxYTU7SPY0TzLykK/6Gws+z3T2oLb4FjKG3kuWngi+kMqoJXQNHr2RNLnPhV8ICm2LtKGZdDD0XrIUkc6SFraBb+pDc2ZKfJuR2b8TinSNJPdiPTIbCC1SGY4tczrhMnRqIE1PsBQL4Nl5In9gQdrBbXJPcAU4BlJlGlMZ+yrbJNW1FTML2isfbaOgWOXu7RReJHkyxVsKsvFERqrvz5xQwq8iDzak8CLpGkSXJFgxVwprkngbzXEtZClrbKS13Bgv8nkyU44UjOKJlONt64JKlK0KvuWoZS6r+ZCqyhgv9FW2yaKLFTMZ0qjjOQkqUUa0+35sFRN6CdogtS/Gi6R8SORJRXJPlGK/5GWMTjYQSe9n8stf3Bg6CU6Bz4ti8pl0jylzfHIRpVWJdsGCoGwz9O32QjimEjHhakx8g2yoCL5BwO44LArrkckgDHJZyQgh0vON8XqKyW9Khk7ywT0fk+6zPcWKCddJPREv6ypkpLDa0Hig6TT7TB4MLWp899zupyY6YUBfYMFYMZOw6E61HD0QUi2V+aITOxiwdnG3SF8kFdG34tJl3ECuf2PNdz+x7Q3dM7ToYE4qopQ/fEaD6aQcphE+Ui2VcY/cr3uttpFnFx3MS192MzdTT+BNqKq/nedxzpD/2rZIVco9mlQj5lKuZwZz/XrMtKVN8v+LQZKmGGhK8+/v7/rn5uZm3WAamrtwY0Lf0Ef0ASYJG8tK/rlJIS1LD6eF9BQRFVBEVEARUQFFRAUUERVQRFRAEVEBRUQFFBEVUERUQBFRAUXEyVNV/wJdYLc2UATKMQAAAABJRU5ErkJggg==;container=0;" parent="1" vertex="1">
                    <mxGeometry x="182" y="232.35000000000002" width="23.79" height="20" as="geometry"/>
                </mxCell>
                <mxCell id="163" value="" style="rounded=1;whiteSpace=wrap;html=1;container=0;" parent="1" vertex="1">
                    <mxGeometry x="-126" y="-4" width="307" height="73" as="geometry"/>
                </mxCell>
                <mxCell id="164" value="Sơ đồ luồng dữ liệu" style="text;html=1;strokeColor=none;fillColor=none;align=center;verticalAlign=middle;whiteSpace=wrap;rounded=0;fontSize=24;container=0;" parent="1" vertex="1">
                    <mxGeometry x="-108" y="11.816666666666665" width="279" height="36.5" as="geometry"/>
                </mxCell>
                <mxCell id="324" value="&lt;span style=&quot;color: rgba(0, 0, 0, 0); font-family: monospace; font-size: 0px; text-align: start;&quot;&gt;%3CmxGraphModel%3E%3Croot%3E%3CmxCell%20id%3D%220%22%2F%3E%3CmxCell%20id%3D%221%22%20parent%3D%220%22%2F%3E%3CmxCell%20id%3D%222%22%20value%3D%22%22%20style%3D%22shape%3DsumEllipse%3Bperimeter%3DellipsePerimeter%3BwhiteSpace%3Dwrap%3Bhtml%3D1%3BbackgroundOutline%3D1%3B%22%20vertex%3D%221%22%20parent%3D%221%22%3E%3CmxGeometry%20x%3D%22-535%22%20y%3D%22149%22%20width%3D%2252%22%20height%3D%2252%22%20as%3D%22geometry%22%2F%3E%3C%2FmxCell%3E%3C%2Froot%3E%3C%2FmxGraphModel%3E&lt;/span&gt;" style="rounded=0;whiteSpace=wrap;html=1;container=0;" parent="1" vertex="1">
                    <mxGeometry x="-327" y="161.5" width="64" height="41" as="geometry"/>
                </mxCell>
                <mxCell id="325" value="Delay" style="text;html=1;strokeColor=none;fillColor=none;align=center;verticalAlign=middle;whiteSpace=wrap;rounded=0;container=0;" parent="1" vertex="1">
                    <mxGeometry x="-323" y="167" width="60" height="30" as="geometry"/>
                </mxCell>
                <mxCell id="332" value="&lt;span style=&quot;color: rgba(0, 0, 0, 0); font-family: monospace; font-size: 0px; text-align: start;&quot;&gt;%3CmxGraphModel%3E%3Croot%3E%3CmxCell%20id%3D%220%22%2F%3E%3CmxCell%20id%3D%221%22%20parent%3D%220%22%2F%3E%3CmxCell%20id%3D%222%22%20value%3D%22%22%20style%3D%22shape%3DsumEllipse%3Bperimeter%3DellipsePerimeter%3BwhiteSpace%3Dwrap%3Bhtml%3D1%3BbackgroundOutline%3D1%3B%22%20vertex%3D%221%22%20parent%3D%221%22%3E%3CmxGeometry%20x%3D%22-535%22%20y%3D%22149%22%20width%3D%2252%22%20height%3D%2252%22%20as%3D%22geometry%22%2F%3E%3C%2FmxCell%3E%3C%2Froot%3E%3C%2FmxGraphModel%3E&lt;/span&gt;" style="rounded=0;whiteSpace=wrap;html=1;container=0;" parent="1" vertex="1">
                    <mxGeometry x="-183" y="162.5" width="40" height="40" as="geometry"/>
                </mxCell>
                <mxCell id="333" value="" style="shape=image;verticalLabelPosition=bottom;labelBackgroundColor=default;verticalAlign=top;aspect=fixed;imageAspect=0;image=data:image/png,iVBORw0KGgoAAAANSUhEUgAAACgAAAA4CAYAAACPKLr2AAAAAXNSR0IArs4c6QAAAARnQU1BAACxjwv8YQUAAAAJcEhZcwAADsMAAA7DAcdvqGQAAAKYSURBVGhD7ZrhkQFBEIX3LgEyQARkQAZkgAyIQAhKBIhAiQARIAJEQAZ38/Z6quyame7esVd+7FfVZeau2bc9PT297r5+DMkH802vH0slMJZKYCyVwFgqgbF8vEDVUXc6nZL1ek2z8hkOh0kCgVLm8zlu5t9ss9n8qJa40+kko9GIZuWD6xXqZsbjcbJarWjmp9ls0uiV6/VKIzcQdzweTRwLsNvtXpYjb/V6nbz94HOMEOf7J5NJ6lNoF5uL08gPIsDR6/USI5JmWdrtdvpaSODj8aCRH4lAgJuF0Dz2Z4UEotxwdLtdGvHkbwaibf4WEng+n2nkRxpBUKvVaPTHc0QLCdzv9zRyA3GhHZwHguBvzeZfSrpVFNzvd+eue7bBYEDe8agjyEUPZCIQiVogV2CBJv841AIPhwON3PjKhgUlClXAGgsttRiTxM68s2aiR55uZrOZ2BeoIog75pY4FD28d7FY0Czsa1EL5AgV6Ol0mjmFRMWcIinCtFqZ5XTZ5XIh7yyuXtLn+4yq3Wq1WsElxgYxOUazP263W1qa8tHHTk/bKY5UpgBJgdaYtJiLc1BUEhT0+30ahXmrQCzxs4WQ7OAUiiQLlgTuIXMlPbrmfO004um3PGKBMQV6uVxmfDXNhGiJYwt0/mzWNBNigRyhi+bzMS84CEUySEyBBihRSBFrmEsRCUR+uURZ0yS9FnaJbXsUQlwyCsAKjM2/WN4iUJX0SliBXAcNyhTIbpKYAv0OghGUFOhSo2cICpQ8YnJNQSxBgdvtlkZ+Go0GjcrBKxDRk0SwdCgXM5hWnN0c1uBXJi8C8c0mji6XGJ9BJM5ryUOQlozA2OeOMgRmnupw7kq+HHeB3VzGXwCq/1mIpRIYR5L8AkI4IYSsErTtAAAAAElFTkSuQmCC;container=0;" parent="1" vertex="1">
                    <mxGeometry x="-172" y="170.75" width="15.54" height="21.75" as="geometry"/>
                </mxCell>
                <mxCell id="358" value="&lt;span style=&quot;color: rgba(0, 0, 0, 0); font-family: monospace; font-size: 0px; text-align: start;&quot;&gt;%3CmxGraphModel%3E%3Croot%3E%3CmxCell%20id%3D%220%22%2F%3E%3CmxCell%20id%3D%221%22%20parent%3D%220%22%2F%3E%3CmxCell%20id%3D%222%22%20value%3D%22%22%20style%3D%22shape%3DsumEllipse%3Bperimeter%3DellipsePerimeter%3BwhiteSpace%3Dwrap%3Bhtml%3D1%3BbackgroundOutline%3D1%3B%22%20vertex%3D%221%22%20parent%3D%221%22%3E%3CmxGeometry%20x%3D%22-535%22%20y%3D%22149%22%20width%3D%2252%22%20height%3D%2252%22%20as%3D%22geometry%22%2F%3E%3C%2FmxCell%3E%3C%2Froot%3E%3C%2FmxGraphModel%3E&lt;/span&gt;" style="rounded=0;whiteSpace=wrap;html=1;container=0;" parent="1" vertex="1">
                    <mxGeometry x="-181" y="300" width="40" height="40" as="geometry"/>
                </mxCell>
                <mxCell id="363" value="" style="shape=image;verticalLabelPosition=bottom;labelBackgroundColor=default;verticalAlign=top;aspect=fixed;imageAspect=0;image=data:image/png,iVBORw0KGgoAAAANSUhEUgAAADQAAABJCAYAAAByxAX0AAAAAXNSR0IArs4c6QAAAARnQU1BAACxjwv8YQUAAAAJcEhZcwAADsMAAA7DAcdvqGQAAAQYSURBVGhD7ZqBUeMwEEV9V0E6gA6ACoAOoAKgAzpgqIChAqACoAKgAqAC0gF0kNPTyRnjrORdSUkMkzezE3IXS/rW7mol+8/M0fwi/obPX8NG0NjZCBo7G0FjZyNo7Pw6QWsrfb6+vuY2nU7n/waTycQbbG9ve9OyMkEM9vn5uXl5efGfiGgFaEDgwcGB/9zZ2Wl2d3f99wUQtCw+Pz9nT09PM9fxzA2EG1fdjo6OZjc3N6FHNznhsyoIub+/n7m7KA5iGfbx8eH7ri6IGVmlEIzZb6kWQ8TD5eVlc3t7q44N4oFY2N/fn8cH12Jvb2/N3d3dPGGkcG7XOI/4/8XLKoTpJk5oTmv4/uvra2ghzsXFhXh9187Pz8OvK7gcg3JpVexIMtyD+LKAeKmt1rrtFQlCjCV7EVtt8FogyUjttdZtM1uQVQyzmCOmJebS3KQuWaUPQXt8fGwKfoLWsuL3IXFIkFS6mAUh4uzsTJV9WtzCt9Cxldj1faFmQaTlh4eH8G0Yl4F8Wl0WzP43guupsMYNvyWga8CCrWnfJMi61rCG1ITB962PWhC5Xhp0zMhqUofLRiWIgZEepYHH7OrqKly9WlSCKM+lQcdsXbMDqix3fX0d/tJxcnKymH1WRRAWxRo7WElFUMrgDFHCW2DNKakIignCRIgDy7qDWSvp2iRnyLJZA+KGjdo6SQrihMZCu+tcK2GmFviJ7gbRGeLszOJuUFpR1yAqiEMKC7jbWrNbICro/f09/KUjtgFbNUmXszAGdwPxXA5329vbC9+GIbO56kCd4ayxmWKhT58aeliLUSpxC6enp2I7Odbfc4kuZ72D1sXUmnBS9F1dFGRdUHm8YaFWRqSdhZsZZuobQyeVfWO/n0Ou67HfivUpCuICqaGYlWwXrNUIv0/dwGja1oLrlLiPNd2zPUnFbHFS0KbqWrAbTlE8Q6WCLDeP2RzKqFVcrgSroCGKBZXA+bjljFxTL4qCSu+6lpyKfghRkDXz5GIRRKxqbrQoaGtrK/w1TEmhadmiaGYHimcoVxDXWbYo6vIqLLDf4DyB/9IYK3cO1gNM7XlF9JDEUmfllD7WelHbR1SQ9IApZtYnDQxOaidmLgTClcNEBQENSR30zWWfcMUwuLMLcLGdmHVfrBgiKYhHkFIHkmlnKWfLYDnvSwoC7o7UiWQpUbiZNW5as8So6uUlHuNzzq2BxY8Sv02zpOfHx0e/iOakeBZU56bhmwIvS4Flpmoas2pBXZw6d/IvUNSEu897DCms5xXqGepCrHBprpEVOX4i40Fq9q0PAIpeAOSNEk6IiI9UGcNMUE5R/hNfUml1eHjo2yEGqdvaF2Wl36ao+lYwQd9aCwNEkAau0/42RlVBY0CdFH4KG0FjZyNo3DTNP2Boy2zI1WScAAAAAElFTkSuQmCC;container=0;" parent="1" vertex="1">
                    <mxGeometry x="-169.33000000000004" y="307.8" width="16.67" height="23.4" as="geometry"/>
                </mxCell>
                <mxCell id="382" value="&lt;span style=&quot;color: rgba(0, 0, 0, 0); font-family: monospace; font-size: 0px; text-align: start;&quot;&gt;%3CmxGraphModel%3E%3Croot%3E%3CmxCell%20id%3D%220%22%2F%3E%3CmxCell%20id%3D%221%22%20parent%3D%220%22%2F%3E%3CmxCell%20id%3D%222%22%20value%3D%22%22%20style%3D%22shape%3DsumEllipse%3Bperimeter%3DellipsePerimeter%3BwhiteSpace%3Dwrap%3Bhtml%3D1%3BbackgroundOutline%3D1%3B%22%20vertex%3D%221%22%20parent%3D%221%22%3E%3CmxGeometry%20x%3D%22-535%22%20y%3D%22149%22%20width%3D%2252%22%20height%3D%2252%22%20as%3D%22geometry%22%2F%3E%3C%2FmxCell%3E%3C%2Froot%3E%3C%2FmxGraphModel%3E&lt;/span&gt;" style="rounded=0;whiteSpace=wrap;html=1;container=0;" parent="1" vertex="1">
                    <mxGeometry x="222" y="234" width="64" height="41" as="geometry"/>
                </mxCell>
                <mxCell id="383" value="" style="shape=image;verticalLabelPosition=bottom;labelBackgroundColor=default;verticalAlign=top;aspect=fixed;imageAspect=0;image=data:image/png,iVBORw0KGgoAAAANSUhEUgAAAGIAAABRCAYAAAApS3MNAAAAAXNSR0IArs4c6QAAAARnQU1BAACxjwv8YQUAAAAJcEhZcwAADsMAAA7DAcdvqGQAAAVuSURBVHhe7Z2BNTQxEMfXVwEdUIFTATqgAnRABUcFqIAOUMFRASqgAzrw5b8mT74x2Ux2s99lL/m9N88eSd5d/kkmM8k9a1+GprJ0/tDPypKpQmRCFSITqhCZUIXIhCpEJlQhMqEKkQlViEyoQmRCFSITqhCZUIXIhOTZ1/f39+bx8ZFexTGbzVqTQJtoO5auNrMCQqTk5uYGwvayu7s7auU3m5ubYp2QzedzaiFvRlmaTKfRk569vb3OkdtnVKMO2p0EJEhyDg4OxBHKbX19vZ1FGhaLhdgGN9P5X8/Pz1RrGowmhLbTYpaOj48PsQ3XTk9P23JTYzQhMCKljnINs+Ht7Y1qhAm1ORV/IDHa9vXz85Oe/GD9jvEn19fX9PQbs7w15+fn9Gp6jCaEZqu5vb1NT2Hu7++b29tbevWDmVWtCMfHx/SbiUIzIzlYJtB8l2mXJZTDMsbrxzj63FnargmdqAGOF7sgqX5X3DE1RhNCGsGuoXNDQARJ0FUTAYwihGbHhG1mFyWJAEYR4vLy8lcHcuvqzNJEAKMIoYmqfY66S4SpRcsxjCJEKEE3m82o5L/4REB7MYHfFEkuBDqMdyQ3s+en0j+ULAJIHtC9vLzQk5/d3V16+gZ1dnZ22qDNBdnTxWLRK5s7NZYihE1NIw2CaHl/f1+MxI1jLkIEkFyI19dXevKDnNHh4WE7C05OTlR5qZWHlqhkhAK5GJN8yaqS9MzarvWpMKI2xonTq9Um6dKkuTRgdkbq40vrQ4qgnReJiAnksF0NxRswlCmBpEKEOpYHckhXSOW41TgiAiwjocMgfhMDy5Rme3pxcUFPq0syITT+gQdyYD6f05MfBHqrvsVNJoQmkJNGP2ZFiCKcNi1Rgwk5asQXcNASiBekOq6h/irz32YEZgPiAomjoyN68oNZoZl1UyWJEOigkKPuih3wN43T7rpOM3WSCNHXUbtofAX8RJ8b4V3EbgLG2jQkEUKT6ONbV45m9wR4qrwP6ExcRkM6Zmtrq1lbW2szwL6lDwMNycmNjY3WbPmkGwjyFYMIBXL4uwbc7JDquzbUaeO4FYGlpm1sLnDJQSprLdUZ+mAh8GalN+gadlQatN+t6PvhIQI6G23gpzSA7IU1fC53JwjxbF3Xhg4My2AhNGmK0NUZi0ZUGGZOLLidbjsS9W3ahG+7cUPRFQFl3UsL0g3GFJcaBgvBP4hkePNaNMsTLDb/ZL8mwK/t84GEGWE/k++Kv1sehraHMkgIdIY0XbnFCCGNOMn6zAq8X96xfDl0RfDBP/NShXCnb8h41rULzeU0azEC+5CEh8jSTLDw8imyw72EQGf5dh4+Q/nQzW0sE6EdGDcMhiE7Fz6YMNq71nz8zS2v3RGGiBYCI8V9IzGGD+1jSLvazYAEX2ZCs0xaylIQfWaNYOjs7IxexYHo2veFEkTMfc8dkKsyywm90oMAzj1jN6I0ZsR3plsQ2LmBnBkEjVkh6NUAWjkKhfsjzejmS+eQZdElWfZ1ijw9PdHTN6GvkknJTeP76GkYRQvBc0uhTpXKdy1jMRQrhDS6Q37m4eGBnr7p45d8FC2EC0Y3nHUXvE4otR9DsUJw/xAa3dIMSuUfQLFC8MOs0OiWROD+YcihUZFCoMNiR3eoPGYMDpmurq7oN3EUKQSfDRjZsbsfd/SjPZzY4Xea00qJIoWQHHUILhSObPEdDwiAnxABWYPeUTYFdkXBE32aLC5yYUaMf+q55ju70FKkEGYGtJ1qTZumQOaVi4GUeYrziPqvbXpgfYwRJdq3+KhCZEKxcURuVCEyoQqRCVWITKhCZEIVIhOqEJlQhciEKkQmVCEyoQqRCVWILGiav2nprFJbXx42AAAAAElFTkSuQmCC;container=0;" parent="1" vertex="1">
                    <mxGeometry x="238.48000000000002" y="240.84" width="33.05" height="27.32" as="geometry"/>
                </mxCell>
                <mxCell id="417" value="" style="edgeStyle=none;html=1;endArrow=none;" parent="1" source="386" target="416" edge="1">
                    <mxGeometry relative="1" as="geometry">
                        <mxPoint x="461" y="255" as="targetPoint"/>
                        <mxPoint x="379.99999999997635" y="255" as="sourcePoint"/>
                    </mxGeometry>
                </mxCell>
                <mxCell id="418" style="edgeStyle=none;html=1;" parent="1" source="416" edge="1">
                    <mxGeometry relative="1" as="geometry">
                        <mxPoint x="-370" y="182" as="targetPoint"/>
                        <Array as="points">
                            <mxPoint x="436" y="113"/>
                            <mxPoint x="-370" y="113"/>
                        </Array>
                    </mxGeometry>
                </mxCell>
                <mxCell id="416" value="" style="shape=waypoint;sketch=0;fillStyle=solid;size=6;pointerEvents=1;points=[];fillColor=none;resizable=0;rotatable=0;perimeter=centerPerimeter;snapToPoint=1;" parent="1" vertex="1">
                    <mxGeometry x="425" y="245" width="20" height="20" as="geometry"/>
                </mxCell>
                <mxCell id="425" value="" style="group" parent="1" vertex="1" connectable="0">
                    <mxGeometry x="-8.5" y="233" width="60" height="41" as="geometry"/>
                </mxCell>
                <mxCell id="426" value="" style="group" parent="425" vertex="1" connectable="0">
                    <mxGeometry x="12.0025" width="60" height="41" as="geometry"/>
                </mxCell>
                <mxCell id="427" value="&lt;span style=&quot;color: rgba(0, 0, 0, 0); font-family: monospace; font-size: 0px; text-align: start;&quot;&gt;%3CmxGraphModel%3E%3Croot%3E%3CmxCell%20id%3D%220%22%2F%3E%3CmxCell%20id%3D%221%22%20parent%3D%220%22%2F%3E%3CmxCell%20id%3D%222%22%20value%3D%22%22%20style%3D%22shape%3DsumEllipse%3Bperimeter%3DellipsePerimeter%3BwhiteSpace%3Dwrap%3Bhtml%3D1%3BbackgroundOutline%3D1%3B%22%20vertex%3D%221%22%20parent%3D%221%22%3E%3CmxGeometry%20x%3D%22-535%22%20y%3D%22149%22%20width%3D%2252%22%20height%3D%2252%22%20as%3D%22geometry%22%2F%3E%3C%2FmxCell%3E%3C%2Froot%3E%3C%2FmxGraphModel%3E&lt;/span&gt;" style="rounded=0;whiteSpace=wrap;html=1;" parent="426" vertex="1">
                    <mxGeometry x="18.75" width="41.25" height="41" as="geometry"/>
                </mxCell>
                <mxCell id="428" value="" style="shape=image;verticalLabelPosition=bottom;labelBackgroundColor=default;verticalAlign=top;aspect=fixed;imageAspect=0;image=data:image/png,iVBORw0KGgoAAAANSUhEUgAAADMAAAA1CAYAAADs+NM3AAAAAXNSR0IArs4c6QAAAARnQU1BAACxjwv8YQUAAAAJcEhZcwAADsMAAA7DAcdvqGQAAAMBSURBVGhD7ZqBkeIwDEVz1wCUQAfQAZQAFUAJUAF0QAlABdABUAFQAVABdMD6Z8VeLiNbkp29y+zkzWg2GRIl35ZkGfbXy5H9EH7T3x9BI6auNGLqSnQ1ez6f2W63ozMbvV4vN471ek1HNjqdTpZBTAz7/R6DEGXz+Zy8/M31emWv19hkMnlFh1m73f4cDSODwSA3H6HPfOA9xuOxk5QIRsT5U9lyuXw9Hg+60892u2Xv52w6nX75TBYDR9xDygbRFtzMs36K5maRrv7kn4k5nU50hw4XOqyfomEGiySL0SStq1x0tR5pZvB5OWST15nb7UZHfqxJDZ8o/SHgE0WoSLKY8/lMR376/T4d6dAMULfbpaM/JIs5Ho905Me3QPrQDBDrk8ItGilRY/JlOByyvorGlfikmUFcSyFhnRUgzQx8lvMFJIk5HA505MeaLxAiDZCvoCSJ0cS2teVJKShJYi6XCx3xIBSsYZZUUCh3opCSv9xuaJB8YrH0ET0zmti2zoqmoIQW4GgxmuRvtVq5aK1pNnvcYvkFzZAZS+tfpZWbyyLRYjRd7XcYGlsfUWK0bX/V5nKQ3oAn6gsNxPZoNKIzHteShOO7xP1+F7/McLvKzO1W6Ywhl2QE21/cGrJQbHOsVivWT9FwTYioaiYtbFgsrXsYzWIp+YwSgzIaAi0M1wiGkHzCn9QamcXgoSkLGwcWS0mMxqdZzHd1yhLSrACzGKm5BNY2RiNGNUBUCNRIiyU+t6LZWYYWyzemmfmfO8vKw0yTL5aFElRZUExipIcC68xofGoHyCSmioWtjCb51T4pd1RIyS81ghzuRVlfbwvtLMuoZ0YT29YQQ0GR8lCT+G/UYmJ/8guh8Wlpi1RiMIKbzYbOqqNynxRuXrAR026RLfGt2UbA4JP7KpYjKAY/wiKpuYf4DNfjRX3Ap5T0ZYNP/KgriQqKkaqXz0JVTdO6cKaZIe+2GXkym83ozAYWOWxxORaLRb5FtoJCENwyO5p/0aorjZi60oipJ1n2AXUIbGFQ+YNyAAAAAElFTkSuQmCC;" parent="426" vertex="1">
                    <mxGeometry x="30.348749999999995" y="11.13" width="18.046875" height="18.75" as="geometry"/>
                </mxCell>
                <mxCell id="433" value="" style="endArrow=classic;html=1;entryX=-0.003;entryY=0.21;entryDx=0;entryDy=0;entryPerimeter=0;" parent="1" target="410" edge="1">
                    <mxGeometry width="50" height="50" relative="1" as="geometry">
                        <mxPoint x="-1440.65" y="278.87" as="sourcePoint"/>
                        <mxPoint x="-1223.65" y="290.87" as="targetPoint"/>
                    </mxGeometry>
                </mxCell>
                <mxCell id="435" value="" style="endArrow=classic;html=1;entryX=0.75;entryY=1;entryDx=0;entryDy=0;" parent="1" target="410" edge="1">
                    <mxGeometry width="50" height="50" relative="1" as="geometry">
                        <mxPoint x="-1295.65" y="374.87" as="sourcePoint"/>
                        <mxPoint x="-1276.6400000000003" y="357.06600000000014" as="targetPoint"/>
                    </mxGeometry>
                </mxCell>
                <mxCell id="437" value="" style="endArrow=classic;html=1;" parent="1" edge="1">
                    <mxGeometry width="50" height="50" relative="1" as="geometry">
                        <mxPoint x="-1440.2800000000002" y="307.87" as="sourcePoint"/>
                        <mxPoint x="-1385.2800000000002" y="307.87" as="targetPoint"/>
                    </mxGeometry>
                </mxCell>
                <mxCell id="438" value="" style="endArrow=classic;html=1;exitX=1;exitY=0.25;exitDx=0;exitDy=0;" parent="1" source="410" edge="1">
                    <mxGeometry width="50" height="50" relative="1" as="geometry">
                        <mxPoint x="-1280.65" y="306.87" as="sourcePoint"/>
                        <mxPoint x="-1202.65" y="280.87" as="targetPoint"/>
                    </mxGeometry>
                </mxCell>
                <mxCell id="439" value="" style="endArrow=classic;html=1;exitX=1;exitY=0.75;exitDx=0;exitDy=0;" parent="1" source="410" edge="1">
                    <mxGeometry width="50" height="50" relative="1" as="geometry">
                        <mxPoint x="-1265.2800000000002" y="312.62" as="sourcePoint"/>
                        <mxPoint x="-1202.65" y="311.87" as="targetPoint"/>
                    </mxGeometry>
                </mxCell>
                <mxCell id="440" value="&lt;b&gt;x_pred&lt;/b&gt;" style="text;html=1;strokeColor=none;fillColor=none;align=center;verticalAlign=middle;whiteSpace=wrap;rounded=0;" parent="1" vertex="1">
                    <mxGeometry x="-1258.65" y="262.87" width="43" height="17" as="geometry"/>
                </mxCell>
                <mxCell id="441" value="&lt;b&gt;P_pred&lt;/b&gt;" style="text;html=1;strokeColor=none;fillColor=none;align=center;verticalAlign=middle;whiteSpace=wrap;rounded=0;" parent="1" vertex="1">
                    <mxGeometry x="-1253.65" y="297.87" width="33" height="10" as="geometry"/>
                </mxCell>
                <mxCell id="442" value="&lt;b&gt;x = x_kf&lt;/b&gt;" style="text;html=1;strokeColor=none;fillColor=none;align=center;verticalAlign=middle;whiteSpace=wrap;rounded=0;" parent="1" vertex="1">
                    <mxGeometry x="-1451.65" y="261.87" width="55" height="18" as="geometry"/>
                </mxCell>
                <mxCell id="443" value="&lt;b&gt;P = P_kf&lt;/b&gt;" style="text;html=1;strokeColor=none;fillColor=none;align=center;verticalAlign=middle;whiteSpace=wrap;rounded=0;direction=west;" parent="1" vertex="1">
                    <mxGeometry x="-1292.15" y="362.17" width="61.5" height="20" as="geometry"/>
                </mxCell>
                <mxCell id="445" value="&lt;b&gt;u = v_wls&lt;/b&gt;" style="text;html=1;strokeColor=none;fillColor=none;align=center;verticalAlign=middle;whiteSpace=wrap;rounded=0;" parent="1" vertex="1">
                    <mxGeometry x="-1462.15" y="292.87" width="65.5" height="13" as="geometry"/>
                </mxCell>
                <mxCell id="449" value="" style="endArrow=classic;html=1;exitX=0;exitY=1;exitDx=0;exitDy=0;entryX=0.75;entryY=0;entryDx=0;entryDy=0;" parent="1" source="458" target="411" edge="1">
                    <mxGeometry width="50" height="50" relative="1" as="geometry">
                        <mxPoint x="-732.5300000000001" y="241.62" as="sourcePoint"/>
                        <mxPoint x="-669.9" y="241.87" as="targetPoint"/>
                    </mxGeometry>
                </mxCell>
                <mxCell id="454" value="&lt;b&gt;Q = cov_v&lt;/b&gt;" style="text;html=1;align=center;verticalAlign=middle;resizable=0;points=[];autosize=1;strokeColor=none;fillColor=none;" parent="1" vertex="1">
                    <mxGeometry x="-1420.65" y="371.87" width="75" height="26" as="geometry"/>
                </mxCell>
                <mxCell id="436" value="" style="endArrow=classic;html=1;entryX=0.25;entryY=1;entryDx=0;entryDy=0;" parent="1" target="410" edge="1">
                    <mxGeometry width="50" height="50" relative="1" as="geometry">
                        <mxPoint x="-1355.65" y="373.87" as="sourcePoint"/>
                        <mxPoint x="-1370.6499999999999" y="329.87" as="targetPoint"/>
                    </mxGeometry>
                </mxCell>
                <mxCell id="455" value="" style="endArrow=classic;html=1;entryX=0.75;entryY=1;entryDx=0;entryDy=0;" parent="1" edge="1">
                    <mxGeometry width="50" height="50" relative="1" as="geometry">
                        <mxPoint x="-778.65" y="395.67" as="sourcePoint"/>
                        <mxPoint x="-778.2800000000001" y="347.67" as="targetPoint"/>
                    </mxGeometry>
                </mxCell>
                <mxCell id="456" value="" style="endArrow=classic;html=1;entryX=0.25;entryY=1;entryDx=0;entryDy=0;" parent="1" edge="1">
                    <mxGeometry width="50" height="50" relative="1" as="geometry">
                        <mxPoint x="-838.65" y="394.67" as="sourcePoint"/>
                        <mxPoint x="-838.2800000000001" y="347.67" as="targetPoint"/>
                    </mxGeometry>
                </mxCell>
                <mxCell id="457" value="&lt;b&gt;P_pred&lt;/b&gt;" style="text;html=1;strokeColor=none;fillColor=none;align=center;verticalAlign=middle;whiteSpace=wrap;rounded=0;direction=west;" parent="1" vertex="1">
                    <mxGeometry x="-772.65" y="382.17" width="48" height="16" as="geometry"/>
                </mxCell>
                <mxCell id="458" value="&lt;b&gt;z = x_wls&lt;/b&gt;" style="text;html=1;strokeColor=none;fillColor=none;align=center;verticalAlign=middle;whiteSpace=wrap;rounded=0;" parent="1" vertex="1">
                    <mxGeometry x="-780.15" y="233.2" width="61.5" height="13" as="geometry"/>
                </mxCell>
                <mxCell id="460" value="&lt;b&gt;R = cov_x&lt;/b&gt;" style="text;html=1;strokeColor=none;fillColor=none;align=center;verticalAlign=middle;whiteSpace=wrap;rounded=0;direction=west;" parent="1" vertex="1">
                    <mxGeometry x="-901.65" y="394.17" width="68" height="17" as="geometry"/>
                </mxCell>
                <mxCell id="462" value="&lt;b&gt;x_kf&lt;/b&gt;" style="text;html=1;strokeColor=none;fillColor=none;align=center;verticalAlign=middle;whiteSpace=wrap;rounded=0;" parent="1" vertex="1">
                    <mxGeometry x="-744.65" y="284.17" width="43" height="17" as="geometry"/>
                </mxCell>
                <mxCell id="468" value="" style="endArrow=classic;html=1;exitX=1;exitY=0.75;exitDx=0;exitDy=0;" parent="1" source="411" edge="1">
                    <mxGeometry width="50" height="50" relative="1" as="geometry">
                        <mxPoint x="-720.6500000000001" y="328.67" as="sourcePoint"/>
                        <mxPoint x="-680.65" y="332.67" as="targetPoint"/>
                    </mxGeometry>
                </mxCell>
                <mxCell id="469" value="&lt;b style=&quot;border-color: var(--border-color); color: rgb(0, 0, 0); font-family: Helvetica; font-size: 12px; font-style: normal; font-variant-ligatures: normal; font-variant-caps: normal; letter-spacing: normal; orphans: 2; text-align: center; text-indent: 0px; text-transform: none; widows: 2; word-spacing: 0px; -webkit-text-stroke-width: 0px; background-color: rgb(255, 255, 255); text-decoration-thickness: initial; text-decoration-style: initial; text-decoration-color: initial;&quot;&gt;P_kf&lt;/b&gt;" style="text;whiteSpace=wrap;html=1;" parent="1" vertex="1">
                    <mxGeometry x="-736.65" y="309.67" width="40" height="20" as="geometry"/>
                </mxCell>
                <mxCell id="473" style="edgeStyle=none;html=1;exitX=1;exitY=0.5;exitDx=0;exitDy=0;" parent="1" source="475" edge="1">
                    <mxGeometry relative="1" as="geometry">
                        <mxPoint x="-872.15" y="313.37" as="targetPoint"/>
                    </mxGeometry>
                </mxCell>
                <mxCell id="485" value="Đúng" style="edgeLabel;html=1;align=center;verticalAlign=middle;resizable=0;points=[];" parent="473" vertex="1" connectable="0">
                    <mxGeometry x="-0.2833" y="2" relative="1" as="geometry">
                        <mxPoint x="20" y="-1" as="offset"/>
                    </mxGeometry>
                </mxCell>
                <mxCell id="474" style="edgeStyle=none;html=1;entryX=0;entryY=0.25;entryDx=0;entryDy=0;" parent="1" edge="1">
                    <mxGeometry relative="1" as="geometry">
                        <mxPoint x="-1158.65" y="299.17" as="sourcePoint"/>
                        <mxPoint x="-1091.2800000000002" y="299.6199999999999" as="targetPoint"/>
                    </mxGeometry>
                </mxCell>
                <mxCell id="475" value="&amp;nbsp;kiểm tra khoảng cách Mahalanobis &amp;lt; ngưỡng" style="rounded=1;whiteSpace=wrap;html=1;" parent="1" vertex="1">
                    <mxGeometry x="-1091.2800000000002" y="264.37" width="141" height="97" as="geometry"/>
                </mxCell>
                <mxCell id="476" style="edgeStyle=none;html=1;entryX=0;entryY=0.5;entryDx=0;entryDy=0;" parent="1" edge="1">
                    <mxGeometry relative="1" as="geometry">
                        <mxPoint x="-1091.2800000000002" y="322.87" as="targetPoint"/>
                        <mxPoint x="-1158.65" y="323.17" as="sourcePoint"/>
                    </mxGeometry>
                </mxCell>
                <mxCell id="477" style="edgeStyle=none;html=1;entryX=-0.001;entryY=0.754;entryDx=0;entryDy=0;entryPerimeter=0;" parent="1" edge="1">
                    <mxGeometry relative="1" as="geometry">
                        <mxPoint x="-1091.4210000000003" y="347.50800000000004" as="targetPoint"/>
                        <mxPoint x="-1158.65" y="348.17" as="sourcePoint"/>
                    </mxGeometry>
                </mxCell>
                <mxCell id="478" value="&lt;b&gt;z = x_wls&lt;/b&gt;" style="text;html=1;strokeColor=none;fillColor=none;align=center;verticalAlign=middle;whiteSpace=wrap;rounded=0;" parent="1" vertex="1">
                    <mxGeometry x="-1172.15" y="284.17" width="61.5" height="13" as="geometry"/>
                </mxCell>
                <mxCell id="479" value="&lt;b&gt;H&lt;/b&gt;" style="text;html=1;strokeColor=none;fillColor=none;align=center;verticalAlign=middle;whiteSpace=wrap;rounded=0;direction=west;" parent="1" vertex="1">
                    <mxGeometry x="-1164.15" y="305.87" width="23" height="20" as="geometry"/>
                </mxCell>
                <mxCell id="480" value="&lt;b&gt;P_pred&lt;/b&gt;" style="text;html=1;strokeColor=none;fillColor=none;align=center;verticalAlign=middle;whiteSpace=wrap;rounded=0;" parent="1" vertex="1">
                    <mxGeometry x="-1155.15" y="334.17" width="33" height="10" as="geometry"/>
                </mxCell>
                <mxCell id="481" style="edgeStyle=none;html=1;entryX=0;entryY=0.25;entryDx=0;entryDy=0;" parent="1" edge="1">
                    <mxGeometry relative="1" as="geometry">
                        <mxPoint x="-1158.65" y="276.86999999999995" as="sourcePoint"/>
                        <mxPoint x="-1091.2800000000002" y="277.3199999999999" as="targetPoint"/>
                    </mxGeometry>
                </mxCell>
                <mxCell id="482" value="&lt;b&gt;x_pred&lt;/b&gt;" style="text;html=1;strokeColor=none;fillColor=none;align=center;verticalAlign=middle;whiteSpace=wrap;rounded=0;" parent="1" vertex="1">
                    <mxGeometry x="-1172.15" y="261.87" width="61.5" height="13" as="geometry"/>
                </mxCell>
                <mxCell id="483" value="" style="endArrow=classic;html=1;entryX=0.25;entryY=0;entryDx=0;entryDy=0;" parent="1" target="411" edge="1">
                    <mxGeometry width="50" height="50" relative="1" as="geometry">
                        <mxPoint x="-840.15" y="246.37" as="sourcePoint"/>
                        <mxPoint x="-765.15" y="243.37" as="targetPoint"/>
                    </mxGeometry>
                </mxCell>
                <mxCell id="484" value="&lt;b&gt;x_pred&lt;/b&gt;" style="text;html=1;strokeColor=none;fillColor=none;align=center;verticalAlign=middle;whiteSpace=wrap;rounded=0;" parent="1" vertex="1">
                    <mxGeometry x="-859.4" y="226.37" width="43" height="17" as="geometry"/>
                </mxCell>
                <mxCell id="515" style="edgeStyle=none;html=1;exitX=1;exitY=0.5;exitDx=0;exitDy=0;" parent="1" edge="1">
                    <mxGeometry relative="1" as="geometry">
                        <mxPoint x="-1600" y="315.99999999999994" as="sourcePoint"/>
                        <mxPoint x="-1500" y="315.99999999999994" as="targetPoint"/>
                    </mxGeometry>
                </mxCell>
                <mxCell id="516" value="&lt;b style=&quot;border-color: var(--border-color); font-size: 12px; text-align: left;&quot;&gt;&lt;font style=&quot;border-color: var(--border-color); font-size: 14px;&quot;&gt;&lt;span style=&quot;border-color: var(--border-color); font-family: Lato;&quot;&gt;cov_x&lt;/span&gt;&lt;span style=&quot;border-color: var(--border-color); font-family: Lato;&quot;&gt;&lt;br style=&quot;border-color: var(--border-color);&quot;&gt;&lt;/span&gt;&lt;/font&gt;&lt;/b&gt;" style="edgeLabel;html=1;align=center;verticalAlign=middle;resizable=0;points=[];" parent="515" vertex="1" connectable="0">
                    <mxGeometry x="-0.0893" y="1" relative="1" as="geometry">
                        <mxPoint as="offset"/>
                    </mxGeometry>
                </mxCell>
                <mxCell id="517" style="edgeStyle=none;html=1;exitX=1;exitY=0.5;exitDx=0;exitDy=0;" parent="1" edge="1">
                    <mxGeometry relative="1" as="geometry">
                        <mxPoint x="-1600" y="360.7" as="sourcePoint"/>
                        <mxPoint x="-1500" y="360.7" as="targetPoint"/>
                    </mxGeometry>
                </mxCell>
                <mxCell id="518" value="&lt;b style=&quot;border-color: var(--border-color); font-size: 12px; text-align: left;&quot;&gt;&lt;font style=&quot;border-color: var(--border-color); font-size: 14px;&quot;&gt;&lt;span style=&quot;border-color: var(--border-color); font-family: Lato;&quot;&gt;cov_v&lt;/span&gt;&lt;/font&gt;&lt;/b&gt;" style="edgeLabel;html=1;align=center;verticalAlign=middle;resizable=0;points=[];" parent="517" vertex="1" connectable="0">
                    <mxGeometry x="-0.2342" y="1" relative="1" as="geometry">
                        <mxPoint x="9" y="1" as="offset"/>
                    </mxGeometry>
                </mxCell>
                <mxCell id="519" style="edgeStyle=none;html=1;exitX=1;exitY=0.5;exitDx=0;exitDy=0;" parent="1" edge="1">
                    <mxGeometry relative="1" as="geometry">
                        <mxPoint x="-1600" y="218.2" as="sourcePoint"/>
                        <mxPoint x="-1500" y="218.2" as="targetPoint"/>
                    </mxGeometry>
                </mxCell>
                <mxCell id="520" value="&lt;b style=&quot;border-color: var(--border-color); font-size: 12px; text-align: left;&quot;&gt;&lt;font style=&quot;border-color: var(--border-color); font-size: 14px;&quot;&gt;&lt;span style=&quot;border-color: var(--border-color); font-family: Lato;&quot;&gt;x_wls&lt;br style=&quot;border-color: var(--border-color);&quot;&gt;&lt;/span&gt;&lt;/font&gt;&lt;/b&gt;" style="edgeLabel;html=1;align=center;verticalAlign=middle;resizable=0;points=[];" parent="519" vertex="1" connectable="0">
                    <mxGeometry x="0.188" y="1" relative="1" as="geometry">
                        <mxPoint as="offset"/>
                    </mxGeometry>
                </mxCell>
                <mxCell id="521" style="edgeStyle=none;html=1;exitX=1;exitY=0.5;exitDx=0;exitDy=0;" parent="1" edge="1">
                    <mxGeometry relative="1" as="geometry">
                        <mxPoint x="-1600" y="262.29999999999967" as="sourcePoint"/>
                        <mxPoint x="-1500" y="262.29999999999967" as="targetPoint"/>
                    </mxGeometry>
                </mxCell>
                <mxCell id="522" value="&lt;b style=&quot;border-color: var(--border-color); font-size: 12px; text-align: left;&quot;&gt;&lt;font style=&quot;border-color: var(--border-color); font-size: 14px;&quot;&gt;&lt;span style=&quot;border-color: var(--border-color); font-family: Lato;&quot;&gt;v_wls&lt;/span&gt;&lt;/font&gt;&lt;/b&gt;" style="edgeLabel;html=1;align=center;verticalAlign=middle;resizable=0;points=[];" parent="521" vertex="1" connectable="0">
                    <mxGeometry x="0.0614" relative="1" as="geometry">
                        <mxPoint as="offset"/>
                    </mxGeometry>
                </mxCell>
                <mxCell id="523" value="&lt;span style=&quot;color: rgba(0, 0, 0, 0); font-family: monospace; font-size: 0px; text-align: start;&quot;&gt;%3CmxGraphModel%3E%3Croot%3E%3CmxCell%20id%3D%220%22%2F%3E%3CmxCell%20id%3D%221%22%20parent%3D%220%22%2F%3E%3CmxCell%20id%3D%222%22%20value%3D%22%22%20style%3D%22endArrow%3Dclassic%3Bhtml%3D1%3BexitX%3D1%3BexitY%3D0.25%3BexitDx%3D0%3BexitDy%3D0%3B%22%20edge%3D%221%22%20parent%3D%221%22%3E%3CmxGeometry%20width%3D%2250%22%20height%3D%2250%22%20relative%3D%221%22%20as%3D%22geometry%22%3E%3CmxPoint%20x%3D%22-920.3799999999999%22%20y%3D%22115.25%22%20as%3D%22sourcePoint%22%2F%3E%3CmxPoint%20x%3D%22-857.75%22%20y%3D%22115%22%20as%3D%22targetPoint%22%2F%3E%3C%2FmxGeometry%3E%3C%2FmxCell%3E%3CmxCell%20id%3D%223%22%20value%3D%22%26lt%3Bb%26gt%3Bx_pred%26lt%3B%2Fb%26gt%3B%22%20style%3D%22text%3Bhtml%3D1%3BstrokeColor%3Dnone%3BfillColor%3Dnone%3Balign%3Dcenter%3BverticalAlign%3Dmiddle%3BwhiteSpace%3Dwrap%3Brounded%3D0%3B%22%20vertex%3D%221%22%20parent%3D%221%22%3E%3CmxGeometry%20x%3D%22-920.75%22%20y%3D%2298%22%20width%3D%2243%22%20height%3D%2217%22%20as%3D%22geometry%22%2F%3E%3C%2FmxCell%3E%3C%2Froot%3E%3C%2FmxGraphModel%3E&lt;/span&gt;" style="text;html=1;align=center;verticalAlign=middle;resizable=0;points=[];autosize=1;strokeColor=none;fillColor=none;" parent="1" vertex="1">
                    <mxGeometry x="-1572.44" y="203.2" width="20" height="30" as="geometry"/>
                </mxCell>
                <mxCell id="524" value="" style="endArrow=none;dashed=1;html=1;entryX=0.366;entryY=-0.009;entryDx=0;entryDy=0;entryPerimeter=0;" parent="1" target="489" edge="1">
                    <mxGeometry width="50" height="50" relative="1" as="geometry">
                        <mxPoint x="-1186.15" y="476.37" as="sourcePoint"/>
                        <mxPoint x="-922.15" y="306.37" as="targetPoint"/>
                    </mxGeometry>
                </mxCell>
                <mxCell id="527" value="" style="endArrow=none;dashed=1;html=1;entryX=0.669;entryY=-0.003;entryDx=0;entryDy=0;entryPerimeter=0;exitX=0.67;exitY=1.003;exitDx=0;exitDy=0;exitPerimeter=0;" parent="1" source="489" target="489" edge="1">
                    <mxGeometry width="50" height="50" relative="1" as="geometry">
                        <mxPoint x="-952.1500000000002" y="486.37" as="sourcePoint"/>
                        <mxPoint x="-952.0952999999998" y="175.43999999999994" as="targetPoint"/>
                    </mxGeometry>
                </mxCell>
                <mxCell id="528" value="&lt;b&gt;x_kf&lt;/b&gt;" style="text;html=1;strokeColor=none;fillColor=none;align=center;verticalAlign=middle;whiteSpace=wrap;rounded=0;" parent="1" vertex="1">
                    <mxGeometry x="-646.15" y="303.88" width="43" height="17" as="geometry"/>
                </mxCell>
                <mxCell id="529" style="edgeStyle=none;html=1;exitX=1;exitY=0.25;exitDx=0;exitDy=0;" parent="1" edge="1">
                    <mxGeometry relative="1" as="geometry">
                        <mxPoint x="-582.15" y="321.37999999999994" as="targetPoint"/>
                        <mxPoint x="-652.15" y="321.62999999999994" as="sourcePoint"/>
                    </mxGeometry>
                </mxCell>
                <mxCell id="530" style="edgeStyle=none;html=1;exitX=0.5;exitY=1;exitDx=0;exitDy=0;" parent="1" source="475" edge="1">
                    <mxGeometry relative="1" as="geometry">
                        <mxPoint x="-1021.15" y="426.37" as="targetPoint"/>
                        <mxPoint x="-1028.4100000000003" y="418.03" as="sourcePoint"/>
                    </mxGeometry>
                </mxCell>
                <mxCell id="531" value="Sai" style="edgeLabel;html=1;align=center;verticalAlign=middle;resizable=0;points=[];" parent="530" vertex="1" connectable="0">
                    <mxGeometry x="-0.2833" y="2" relative="1" as="geometry">
                        <mxPoint x="-2" y="-8" as="offset"/>
                    </mxGeometry>
                </mxCell>
                <mxCell id="534" style="edgeStyle=none;html=1;entryX=0;entryY=0.5;entryDx=0;entryDy=0;" parent="1" source="533" target="220" edge="1">
                    <mxGeometry relative="1" as="geometry">
                        <Array as="points">
                            <mxPoint x="-14" y="1268"/>
                        </Array>
                    </mxGeometry>
                </mxCell>
                <mxCell id="533" value="&lt;div style=&quot;background-color: rgb(255, 255, 255); font-family: &amp;quot;IntelOne Mono&amp;quot;, Consolas, &amp;quot;Courier New&amp;quot;, monospace; font-size: 14px; line-height: 19px;&quot;&gt;&lt;div style=&quot;line-height: 19px;&quot;&gt;&lt;div style=&quot;line-height: 19px;&quot;&gt;&lt;div style=&quot;line-height: 19px;&quot;&gt;P+= &lt;span style=&quot;color: #098658;&quot;&gt;10&lt;/span&gt;**&lt;span style=&quot;color: #098658;&quot;&gt;2&lt;/span&gt; *Q&lt;/div&gt;&lt;/div&gt;&lt;/div&gt;&lt;/div&gt;" style="rounded=0;whiteSpace=wrap;html=1;fontSize=15;fontColor=#000000;fillColor=none;align=left;" parent="1" vertex="1">
                    <mxGeometry x="-70" y="1346" width="111.71" height="28" as="geometry"/>
                </mxCell>
                <mxCell id="539" value="&lt;div style=&quot;background-color: rgb(255, 255, 255); font-family: &amp;quot;IntelOne Mono&amp;quot;, Consolas, &amp;quot;Courier New&amp;quot;, monospace; font-size: 14px; line-height: 19px;&quot;&gt;&lt;div style=&quot;line-height: 19px;&quot;&gt;&lt;div style=&quot;line-height: 19px;&quot;&gt;&lt;div style=&quot;line-height: 19px;&quot;&gt;P_pred = P+= &lt;span style=&quot;color: #098658;&quot;&gt;10&lt;/span&gt;**&lt;span style=&quot;color: #098658;&quot;&gt;2&lt;/span&gt; *Q&lt;/div&gt;&lt;/div&gt;&lt;/div&gt;&lt;/div&gt;" style="rounded=0;whiteSpace=wrap;html=1;fontSize=15;fontColor=#000000;fillColor=none;align=left;" parent="1" vertex="1">
                    <mxGeometry x="-1129" y="427" width="173" height="28" as="geometry"/>
                </mxCell>
                <mxCell id="544" value="&lt;font style=&quot;font-size: 18px;&quot;&gt;Khối predict&lt;/font&gt;" style="rounded=1;whiteSpace=wrap;html=1;" parent="1" vertex="1">
                    <mxGeometry x="-1405.43" y="187" width="146.78" height="24" as="geometry"/>
                </mxCell>
                <mxCell id="545" value="&lt;font style=&quot;font-size: 18px;&quot;&gt;Khối update&lt;/font&gt;" style="rounded=1;whiteSpace=wrap;html=1;" parent="1" vertex="1">
                    <mxGeometry x="-1054.65" y="187" width="230" height="25" as="geometry"/>
                </mxCell>
                <mxCell id="546" value="Kalman Filter" style="text;html=1;align=center;verticalAlign=middle;resizable=0;points=[];autosize=1;strokeColor=none;fillColor=none;fontSize=18;" parent="1" vertex="1">
                    <mxGeometry x="-1472" y="139" width="124" height="34" as="geometry"/>
                </mxCell>
                <mxCell id="547" value="&lt;font color=&quot;#fd0808&quot; style=&quot;font-size: 34px;&quot;&gt;Phần này chưa tốt , thứ nhất là sơ đồ khối để người xem (hãy quan niệm là họ chưa biết gì) để làm thật dễ hiểu, Chỉ cần sử dụng các khối, mũi tên tuần tự, còn những thứ chi tiết thì sẽ liên quan đến phần cốt lõi hơn r k cần&amp;nbsp;&lt;/font&gt;" style="rounded=0;whiteSpace=wrap;html=1;" vertex="1" parent="1">
                    <mxGeometry x="-896" y="-401" width="677" height="100" as="geometry"/>
                </mxCell>
                <mxCell id="554" value="" style="edgeStyle=none;html=1;fontSize=24;fontColor=#000000;strokeWidth=3;" edge="1" parent="1" source="548" target="552">
                    <mxGeometry relative="1" as="geometry"/>
                </mxCell>
                <mxCell id="548" value="&lt;font color=&quot;#000000&quot; style=&quot;font-size: 24px;&quot;&gt;Predict&lt;br&gt;(Bước ước tính)&lt;/font&gt;" style="rounded=0;whiteSpace=wrap;html=1;fontSize=34;fontColor=#fd0808;strokeWidth=3;" vertex="1" parent="1">
                    <mxGeometry x="1152" y="-721" width="192" height="116" as="geometry"/>
                </mxCell>
                <mxCell id="550" value="" style="edgeStyle=none;html=1;fontSize=34;fontColor=#000000;strokeWidth=3;" edge="1" parent="1" source="549" target="548">
                    <mxGeometry relative="1" as="geometry"/>
                </mxCell>
                <mxCell id="549" value="&lt;font color=&quot;#000000&quot;&gt;Kalman Filter&lt;/font&gt;" style="ellipse;whiteSpace=wrap;html=1;fontSize=34;fontColor=#fd0808;strokeWidth=3;" vertex="1" parent="1">
                    <mxGeometry x="1160" y="-922" width="172" height="120" as="geometry"/>
                </mxCell>
                <mxCell id="557" value="" style="edgeStyle=none;html=1;fontSize=24;fontColor=#000000;strokeWidth=3;" edge="1" parent="1" source="551" target="556">
                    <mxGeometry relative="1" as="geometry"/>
                </mxCell>
                <mxCell id="551" value="&lt;font color=&quot;#000000&quot; style=&quot;font-size: 24px;&quot;&gt;&amp;nbsp;Update&lt;br&gt;(Bước cập nhật)&lt;/font&gt;" style="rounded=0;whiteSpace=wrap;html=1;fontSize=34;fontColor=#fd0808;strokeWidth=3;align=center;" vertex="1" parent="1">
                    <mxGeometry x="1151" y="-353" width="192" height="116" as="geometry"/>
                </mxCell>
                <mxCell id="555" value="" style="edgeStyle=none;html=1;fontSize=24;fontColor=#000000;strokeWidth=3;" edge="1" parent="1" source="552" target="551">
                    <mxGeometry relative="1" as="geometry"/>
                </mxCell>
                <mxCell id="552" value="&lt;font color=&quot;#000000&quot; style=&quot;font-size: 24px;&quot;&gt;Kiểm tra khoảng cách Mahalanobis&lt;/font&gt;" style="rounded=0;whiteSpace=wrap;html=1;fontSize=34;fontColor=#fd0808;strokeWidth=3;" vertex="1" parent="1">
                    <mxGeometry x="1149" y="-537" width="196" height="116" as="geometry"/>
                </mxCell>
                <mxCell id="556" value="&lt;font color=&quot;#000000&quot;&gt;tọa độ ECEF&lt;/font&gt;" style="ellipse;whiteSpace=wrap;html=1;fontSize=34;fontColor=#fd0808;strokeWidth=3;" vertex="1" parent="1">
                    <mxGeometry x="1160" y="-183" width="172" height="120" as="geometry"/>
                </mxCell>
            </root>
        </mxGraphModel>
    </diagram>
</mxfile>